<?xml version="1.0" encoding="utf-8"?>
<!-- Generator: Adobe Illustrator 27.9.0, SVG Export Plug-In . SVG Version: 6.00 Build 0)  -->
<svg version="1.1" id="Layer_1" xmlns="http://www.w3.org/2000/svg" xmlns:xlink="http://www.w3.org/1999/xlink" x="0px" y="0px"
	 viewBox="0 0 229.5 152" style="enable-background:new 0 0 229.5 152;" xml:space="preserve">
<style type="text/css">
	.st0{fill:url(#XMLID_00000151530436652671259820000017714976627860717491_);}
	.st1{fill:url(#XMLID_00000148656200188453107650000007538300237367086213_);}
	.st2{fill:url(#XMLID_00000062899139463796145810000005448555231305214853_);}
	.st3{fill:url(#XMLID_00000126310763073106897230000010088853255379578006_);}
	.st4{opacity:0.53;fill:url(#XMLID_00000047761872378508713450000012736286985429904301_);enable-background:new    ;}
	.st5{fill:#F37021;}
</style>
<g>
	<g>
		<g id="XMLID_139_">
			
				<linearGradient id="XMLID_00000157997465583343319490000016229633566097304746_" gradientUnits="userSpaceOnUse" x1="48.5554" y1="71.5257" x2="162.6556" y2="15.4232" gradientTransform="matrix(1 0 0 -1 0 151.4016)">
				<stop  offset="0" style="stop-color:#FFFFFF"/>
				<stop  offset="0.4796" style="stop-color:#FFFFFF"/>
				<stop  offset="1" style="stop-color:#FFFFFF"/>
			</linearGradient>
			<path id="XMLID_152_" style="fill:url(#XMLID_00000157997465583343319490000016229633566097304746_);" d="M43.7,96.4
				c2.1-0.4,3.9-1.1,5.6-2.3c1.7-1.2,3.1-2.5,4.3-4.1c1.2-1.6,2.2-3.3,2.8-5.2c0.6-1.9,1-3.7,1-5.3c0-3.6-0.5-7.1-1.5-10.4
				c-1-3.3-2.5-6.3-4.5-9.1c-2.1-2.7-4.6-5.1-7.6-7.1c-3-2-6.6-3.4-10.7-4.3h-1.9c-2.7,0-4.9,0.5-6.7,1.4s-3.2,2.1-4.2,3.4
				c-1.1,1.4-1.9,3-2.3,4.7c-0.5,1.8-0.7,3.5-0.7,5.2c0,1.9,0.5,4.1,1.5,6.5c1,2.4,2.5,4.1,4.6,5.1c0.8,0.4,1.7,0.5,2.9,0.5
				c1.9,0,3.9-0.3,5.8-0.9c1-0.4,2-0.7,2.9-1.1c-0.6-0.7-1.3-1.7-1.9-2.8c-0.6-1.2-1.2-2.3-1.6-3.4c-0.5-1.2-0.8-2.2-1.2-3.2
				s-0.5-1.6-0.5-2c0-1,0.4-1.7,1.2-2.2c0.8-0.5,1.6-0.7,2.5-0.7c1.5,0,3.3,0.6,5.2,1.8c1.9,1.2,3.7,2.8,5.3,4.8
				c1.6,2,3,4.2,4.2,6.6c1.2,2.4,1.7,4.8,1.7,7.2c0,3.5-1.2,6.4-3.5,8.6s-5.2,3.3-8.5,3.3c-1.7,0-3.3-0.2-5-0.7
				c-1.7-0.5-3.2-1.1-4.6-1.8s-2.7-1.5-4-2.3s-2.3-1.5-3.2-2.1c-2.2-1.6-3.8-2.9-4.8-4.1s-1.8-2.1-2.2-2.8c-0.4-0.7-0.8-1.3-1-1.6
				c-0.2-0.4-0.5-0.5-0.9-0.5c-0.8,0-1.2,0.2-1.2,0.5c0,0.2,0.6,1.4,1.8,3.6c1.2,2.2,3,4.5,5.4,7.1c2.4,2.5,5.3,4.9,8.8,7
				s7.5,3.2,12,3.2C40.5,97.1,42.1,96.8,43.7,96.4z"/>
			
				<linearGradient id="XMLID_00000072270272273859016360000003296343516792904874_" gradientUnits="userSpaceOnUse" x1="41.2804" y1="59.0841" x2="157.8135" y2="1.7854" gradientTransform="matrix(1 0 0 -1 0 151.4016)">
				<stop  offset="0" style="stop-color:#FFFFFF"/>
				<stop  offset="0.4796" style="stop-color:#FFFFFF"/>
				<stop  offset="1" style="stop-color:#FFFFFF"/>
			</linearGradient>
			<path id="XMLID_148_" style="fill:url(#XMLID_00000072270272273859016360000003296343516792904874_);" d="M155.8,102.3
				c-0.1-0.8-0.4-1.2-0.8-1.2c-0.4-0.1-1.3,0.2-2.6,0.7c-1.4,0.5-3.3,1-5.9,1.4c-2.5,0.5-5.8,0.8-9.6,0.9c-3.9,0.2-8.6-0.1-14-0.9
				c-5.6-0.8-10.9-1.8-15.8-3.2c-4.9-1.4-10-2.4-15.1-3.1c-3.8-0.5-7.9-0.8-12.1-0.9c-4.2-0.1-8.4,0.3-12.5,1.1
				c-4.1,0.8-8,2.1-11.8,4c-3.8,1.9-7.1,4.5-10,7.9c0,0-1,1.3-1.8,2.5c-2.6,3.8-4.2,7.7-4.8,11.6c-0.5,3.6-0.3,6.7,0.7,9.4
				c1,2.7,2.4,5,4.2,6.8c1.7,1.8,3.7,3.2,5.8,4.2c2.1,1,4.1,1.6,5.9,1.8c3.6,0.5,6.3,0.5,8.3,0.2c1.9-0.4,2.9-0.8,3-1.2
				c0.1-0.4-0.2-0.7-0.6-1c-0.2-0.1-0.4-0.2-0.6-0.3c-0.3,0-0.9,0-2.1,0.1c-1.1,0.1-2.6,0-4.4-0.2c-4.8-0.6-8.8-2.5-11.9-5.5
				c-3.1-3-4.2-7.2-3.4-12.4c0.6-4,2.4-7.7,5.3-11l0,0c0,0,1.2-1.4,2.2-2.2c0,0,0,0,0,0c5-3.5,10.1-5.7,15.6-6.6
				c5.4-0.9,11.2-1,17.5-0.1c3.4,0.5,6.7,1.1,9.8,1.9c2.6,0.7,5.3,1.5,8.1,2.4l0.1,0c0,0,0.3,0.1,0.7,0.2c0.2,0.1,0.4,0.1,0.5,0.2
				c0,0,0,0,0,0c1.7,0.5,4.7,1.5,7,2.3c-0.1,0-0.1-0.1-0.1-0.1c2.8,1,5.7,1.9,8.7,2.7s5.9,1.4,9,1.8c6.2,0.8,11.3,1,15.2,0.6
				c3.9-0.5,6.4-0.9,7.5-1.4c0.9-0.5,1.6-1.1,2.2-1.7c0.6-0.5,1.2-1.3,1.8-2.2c0.6-1,1-2.1,1.2-3.4c0-1.5-0.1-2.6-0.1-3.5
				C156.1,103.9,156,103.1,155.8,102.3z"/>
			
				<linearGradient id="XMLID_00000065053896156754149130000017125817201233190832_" gradientUnits="userSpaceOnUse" x1="87.0945" y1="148.7985" x2="202.8647" y2="91.8749" gradientTransform="matrix(1 0 0 -1 0 151.4016)">
				<stop  offset="0" style="stop-color:#FFFFFF"/>
				<stop  offset="0.4796" style="stop-color:#FFFFFF"/>
				<stop  offset="1" style="stop-color:#FFFFFF"/>
			</linearGradient>
			<path id="XMLID_146_" style="fill:url(#XMLID_00000065053896156754149130000017125817201233190832_);" d="M213.6,48.1
				c-1.1-4.7-1.7-9.7-2.1-15c-0.3-4.7-0.2-8.8,0.2-12.2c0-0.3,0.1-0.6,0.1-1c0.1-1,0.3-2,0.5-3c0.4-2.3,0.8-4.3,1.3-5.9
				c0.7-2.3,1.4-4.1,2-5.4c0.6-1.2,0.9-2,0.9-2.4c0-0.3-0.4-0.6-1.2-0.8c-0.8-0.2-1.6-0.4-2.6-0.5s-2.1-0.3-3.7-0.5
				c-1.2,0.1-2.4,0.3-3.3,0.7c-0.1,0.4-0.4,0.9-0.7,1.4c-0.6,1.2-1.3,3-2,5.4c-0.6,2.1-1.2,4.8-1.7,8.1c0,0.3-0.1,0.5-0.1,0.8
				c-0.1,0.9-0.2,1.9-0.3,3c-0.2,3-0.2,6.4,0,10.2c0.3,5.3,1,10.3,2.1,15c0.8,3.8,1.4,7.6,1.8,11.5c0,0,0,0,0,0
				c0.1,0.6,0.3,1.3,0.4,1.9c0.6,2.9,1,6,1.2,9.3c0.4,5.9-0.2,11.3-1.6,16.3c-1.4,5-4.2,9.6-8.4,14c0,0,0,0-0.1,0
				c-1,0.9-2.6,1.9-2.6,1.9l0,0c-3,1.9-6.1,3.2-9.4,3.7c-0.9,0.2-1.8,0.2-2.7,0.3c-4.1,0.2-7.6-0.5-10.3-2.1c-1-0.6-1.9-1.3-2.7-2.1
				c-3-3.1-4.6-7-4.8-11.6c-0.1-1.7-0.1-3.1,0.1-4.1c0.2-1,0.3-1.7,0.3-1.9c0-0.1-0.1-0.3-0.2-0.5c-0.3-0.5-0.6-0.7-1-0.7
				c-0.5,0-1,0.9-1.6,2.7c-0.5,1.8-0.7,4.4-0.5,7.7c0.1,1.7,0.6,3.6,1.4,5.7c0.6,1.5,1.5,3,2.6,4.3c0.4,0.5,0.8,1,1.3,1.4
				c1.5,1.5,3.4,2.8,5.6,3.9c0.4,0.2,0.8,0.4,1.3,0.6c2.8,1.2,6.1,1.7,10,1.5c4.2-0.2,8.4-1.4,12.7-3.5c1.4-0.7,2.9-1.5,2.9-1.5
				c3.9-2.4,7-5.3,9.3-8.6c2.3-3.4,4.1-7,5.3-10.7c1.2-3.8,1.9-7.6,2.2-11.6c0.3-3.9,0.3-7.7,0.1-11.3
				C215.3,57.6,214.6,52.8,213.6,48.1z"/>
			
				<linearGradient id="XMLID_00000154408835644771953450000005789357697582574993_" gradientUnits="userSpaceOnUse" x1="79.9878" y1="131.0007" x2="194.6384" y2="74.6276" gradientTransform="matrix(1 0 0 -1 0 151.4016)">
				<stop  offset="0" style="stop-color:#FFFFFF"/>
				<stop  offset="0.4796" style="stop-color:#FFFFFF"/>
				<stop  offset="1" style="stop-color:#FFFFFF"/>
			</linearGradient>
			<path id="XMLID_141_" style="fill:url(#XMLID_00000154408835644771953450000005789357697582574993_);" d="M166.4,74
				c0.4,1.3,0.9,2.7,1.6,4c1.5,3,4.3,5.4,8.3,7c0.8,0.3,1.9,0.6,3.2,0.7c0.5,0.1,1.1,0.1,1.7,0.1c0.1,0,0.3,0,0.5,0
				c1.1,0,2.1-0.2,3-0.7l0.4-0.2c1.8-1.3,3.5-3.3,5-6.1c1.4-2.5,2.3-5.1,2.8-6.9c0.1-0.2,0.1-0.4,0.1-0.5c0.1-0.3,0.2-0.5,0.2-0.8
				l0-0.1c0.1-0.2,0.1-0.5,0.2-0.7l0.1-0.6c0.1-0.4,0.1-0.8,0.2-1.2c0.5-3.7,0.9-7.7,1.1-12c0.2-4.2,0.2-8.8,0.1-13.5
				c-0.1-4-0.1-8-0.3-13.2c-0.1-3.1-0.2-5.9-0.3-8.4c0-0.9-0.1-1.8-0.1-2.7c0-0.4,0-0.7-0.1-1c-0.1-2.6-0.2-4.6-0.3-5.9
				c0.1-0.8,0.1-1.5,0.2-2.1l0.1-0.5l-0.6,0c-0.7,0-1.4,0.1-2.1,0.2c-1.5,0.2-3,0.6-4.5,1.3c-1.5,0.7-2.6,1.7-3.2,3.1
				c-0.3,0.6-0.5,1.2-0.6,1.9c-0.1,0.6-0.2,1.2-0.3,2.1c0,0.2,0,0.4,0,0.6c0.1,0.7,0.1,1.7,0.2,2.9c0,0.7,0.1,1.4,0.1,2.3l0.1,1.2
				c0.1,2.9,0.3,6.2,0.5,10c0.2,4,0.3,8,0.4,12c0.1,4.2,0.1,8.3,0,12.2c-0.1,3.9-0.4,7.6-0.8,10.9c-0.4,2.7-0.9,4.9-1.5,6.6
				c-0.1,0.4-0.3,0.7-0.4,1.1c-0.4,1-1,1.7-1.6,2c-0.1,0-0.1,0.1-0.2,0.1c-0.6,0.2-1.3,0.2-2.1-0.1c-0.1,0-0.2-0.1-0.3-0.1
				c-1.8-0.8-3.7-2.9-5.5-6.1c-0.3-0.6-0.6-1.2-0.9-1.9c0.4-0.3,0.8-0.7,1.1-1c1.5-1.5,2.8-3.1,3.7-4.8c0.5-0.8,0.9-1.6,1.2-2.5
				c1.1-2.8,1.1-5.6-0.1-8.5c-1.6-3.8-4.2-6.6-7.8-8.5c-3.6-1.8-7.5-3-11.8-3.4c-4.3-0.4-8.8-0.3-13.4,0.4c-0.4,0.1-0.9,0.1-1.3,0.2
				c-4.1,0.7-7.9,1.6-11.4,2.9c-2.7,1-5.4,2.2-8.2,3.7c-2.8,1.5-5.4,3.4-7.7,5.5c-0.4,0.4-0.8,0.8-1.1,1.1c-1.8,1.9-3.3,4-4.6,6.3
				c-1.3,2.4-2,5-2.2,7.9c0,0,0,0.1,0,0.1c0,0.1,0,0.1,0,0.1l0,0.8c0,0.8,0,2,0.1,3.3c0,0.1-0.1,0.1-0.1,0.2c-2,2.6-3.9,4.2-5.7,4.7
				c-0.1,0-0.2,0.1-0.3,0.1c-1.2,0.3-2.1,0.1-2.6-0.5c-0.5-0.6-1-1.5-1.3-2.6c-0.9-3.3-0.9-7-0.1-11.1c0.9-4.2,1.8-8.1,2.7-11.8
				l0.2,0c0.7-1.8,0.8-3.3,0.5-4.4c-0.4-1.5-1.2-2.7-2.4-3.4c-1.2-0.8-2.3-1.3-3.5-1.7c-1.2-0.4-2.2-0.6-3.1-0.7
				c-0.8-0.1-1.3-0.2-1.3-0.5c0.1,1.1-0.1,2.8-0.5,5.2c-0.5,2.4-0.9,5.1-1.3,8.2c-0.4,3.1-0.7,6.3-0.8,9.7c0,1,0,2.1,0.1,3.1
				c-0.5,2-1.2,3.7-2.1,5.2c-2.1,3.4-4.1,5.6-6.1,6.3c-0.1,0-0.2,0.1-0.3,0.1c-1.9,0.6-3.3-0.2-4.2-2.3c-0.8-1.9-1.4-4.5-1.8-7.8
				c-0.4-3.3-0.6-7-0.7-10.9c0-4,0.1-8,0.3-12.2c0.2-4.2,0.4-8.2,0.7-12c0.2-3.8,0.5-15.4,0.7-18.3c0.2-2.9,0.4-5,0.5-6.3
				c0-1-0.1-1.9-0.3-2.5c-0.1-0.7-0.3-1.3-0.6-1.8c-0.6-1.3-1.6-2.3-3-3c-1.4-0.6-2.8-1.1-4.3-1.3c-1.5-0.2-2.9-0.3-4.1-0.3
				c-1.2,0-2,0-2.3,0c0.4,1.7,0.8,3.7,1,6.1l0.3,4c0,1.6-0.1,4.5-0.1,8.9c-0.1,4.3,0,17.4,0.1,22.7c0.2,5.3,0.5,10.9,1.1,16.5
				c0.4,4.2,1,8.1,1.9,11.6c0,0,0,0,0,0c0.1,0.5,0.3,0.9,0.4,1.4c0.8,2.7,2.5,7.7,5.5,11.1c0.4-0.1,0.8-0.2,1.3-0.2
				c2.2-0.2,4.3,0.7,5.7,2.2c1.2-1.6,3-2.7,5.2-2.9c0.2,0,0.5,0,0.7,0c0.7,0,1.5,0.1,2.1,0.3c0.1-0.1,0.3-0.2,0.4-0.3
				c1.3-1.1,2.3-2.3,3.1-3.7c0.3-0.6,0.6-1.3,0.9-1.9c1,2.5,2.3,4.4,4.1,5.6c1.3,1,2.7,1.5,4,1.7c1.3,0.1,2.5,0,3.6-0.2
				c0.1,0,0.1,0,0.2-0.1c3-0.8,5.3-2.1,6.9-4.1c0.1,0.2,0.1,0.3,0.2,0.5c0,0,0,0.1,0,0.1c0,0,0,0,0,0c1.9,4.6,4.6,8.2,8.2,10.8
				c2.1,1.6,4.3,2.9,6.4,4c1.4,0.7,2.7,1.3,4.1,1.8c3.5,1.3,6.6,2.1,9.3,2.4c2.1,0.2,3.3,0.3,4,0.3c0.6,0,0.8-0.1,1-0.1
				c0.3-0.1,0.5-0.3,0.9-0.6c0.3-0.2,0.9-0.9,0.4-2.1c-0.3-0.7-0.9-1.1-1.8-1.2c-0.2,0-0.8-0.1-2.1-0.4c-1-0.2-2.4-0.6-4.1-1.2
				c-1.5-0.5-3.5-1.3-5.7-2.3c-0.3-0.1-0.6-0.2-0.9-0.4c-2.2-1.1-4.5-2.6-6.8-4.6c-0.4-0.3-0.8-0.7-1.1-1.1c0,0-0.1-0.1-0.1-0.1
				c-0.3-0.3-0.6-0.7-0.9-1c-0.1-0.1-0.2-0.2-0.3-0.3c-0.1-0.1-0.2-0.2-0.3-0.3c-0.6-0.7-1-1.4-1.1-1.6c0,0,0,0,0,0
				c3.8,0.5,11.5,0.3,11.5,0.3c1.7,0,3.4,0,5.2,0c3.6-0.1,7.3-0.5,11.1-1.1c3.8-0.6,7.4-1.6,10.9-2.8c2.6-0.9,5.3-2.2,8.1-3.8
				C165.1,74.8,165.8,74.4,166.4,74z M163.4,60.2L163.4,60.2c-0.7,1.3-1.9,2.6-3.5,3.8c-0.3,0.3-0.7,0.5-1,0.8
				c-1.4,1-3.1,2.1-5.1,3.1c-2.4,1.3-5.1,2.4-7.9,3.3c-2.4,0.7-5,1.4-7.9,1.8c-2.8,0.5-5.7,0.8-8.5,1.1c-0.1,0-0.2,0-0.3,0
				c-2.7,0.2-5.4,0.3-7.9,0.2c-2.3-0.1-4.4-0.2-6.2-0.3c-0.1-1.1-0.1-2.2,0.1-3.2c0.2-1.4,0.7-2.9,1.5-4.2c1.4-2.5,3.4-4.7,5.8-6.4
				c0.6-0.4,1.2-0.8,1.8-1.2c1.9-1.2,4-2.2,6.1-3c2.9-1,6.2-1.8,9.8-2.4c0.7-0.1,1.4-0.2,2.1-0.3c2.9-0.3,5.7-0.4,8.5-0.3
				c3.4,0.2,6.3,0.6,8.8,1.4c2.2,0.7,3.6,1.7,4.2,3C164.2,58.1,164,59.1,163.4,60.2z"/>
		</g>
		<path id="XMLID_137_" d="M179.3,16.4L179.3,16.4v-0.1c0-0.1,0-0.2,0-0.3c0-0.1,0-0.2,0-0.2L153.5,16l-17.8,0.3l-17.8,0.3L100.2,17
			l-17.8,0.5l17.8,0.5l17.8,0.4l17.8,0.3l17.8,0.3l26,0.3C179.4,18,179.4,17.1,179.3,16.4z"/>
		<path id="XMLID_136_" d="M229.5,25.4c0-2.7,0-5.3-0.1-8l-0.1-2.1l-2.1,0l-13.6,0.1c0,0.1,0,0.1,0,0.2c-0.2,1-0.3,1.9-0.5,2.9
			c0,0.3-0.1,0.5-0.1,0.8l11.9,0.1c0,2,0,3.9-0.1,5.9c0,2.6-0.1,5.3,0,8l0.1,8c0,1.3,0.1,2.7,0.1,4l0.1,4c0.1,2.7,0.2,5.3,0.3,8
			c0.1,2.7,0.2,5.3,0.4,8c0.1,1.3,0.1,2.7,0.3,4l0.3,4c0.2,2.7,0.5,5.3,0.8,8c0.3-2.7,0.6-5.3,0.8-8l0.3-4c0.1-1.3,0.2-2.7,0.3-4
			c0.2-2.7,0.3-5.3,0.4-8c0.1-2.7,0.2-5.3,0.3-8l0.1-4c0-1.3,0.1-2.7,0.1-4l0.1-8C229.5,30.8,229.5,28.1,229.5,25.4z"/>
		<ellipse id="XMLID_135_" cx="71.4" cy="88.1" rx="4.3" ry="4"/>
		<ellipse id="XMLID_134_" cx="82.4" cy="88.1" rx="5.2" ry="4.8"/>
		<path id="XMLID_128_" d="M48.8,17.4c0,0-1.4,0.2-4,0.4c-1.3,0.1-2.8,0.3-4.5,0.4c-1.7,0.1-3.7,0.3-5.8,0.4
			c-1.1,0.1-2.2,0.2-3.3,0.4c-1.1,0.3-2.1,0.4-3.3,0.7c-1.1,0.3-2.3,0.6-3.4,1.1c-0.6,0.2-1.1,0.5-1.7,0.7c-0.5,0.3-1.1,0.5-1.7,0.8
			c-1.1,0.5-2.2,1.2-3.3,1.9c-0.5,0.3-1,0.8-1.5,1.1c-0.5,0.4-1.1,0.7-1.5,1.2l-1.4,1.3c-0.5,0.4-0.9,0.9-1.3,1.4
			c-0.9,0.9-1.6,2-2.5,2.9c-0.4,0.5-0.7,1.1-1.1,1.6s-0.7,1.1-1,1.6l-0.9,1.7c-0.2,0.6-0.5,1.2-0.7,1.7c-0.2,0.6-0.5,1.2-0.6,1.7
			c-0.2,0.6-0.4,1.2-0.6,1.8c-0.2,0.6-0.2,1.2-0.4,1.8c-0.1,0.6-0.3,1.2-0.3,1.8c-0.2,2.3-0.3,4.8-0.5,7.1c-0.1,2.3-0.3,4.5-0.4,6.5
			c-0.3,4-0.6,7.4-0.9,9.8c-0.3,2.3-0.5,3.7-0.5,3.7s-0.2-1.3-0.5-3.7s-0.6-5.7-0.9-9.8c-0.2-2-0.3-4.2-0.4-6.5
			c-0.1-2.3-0.3-4.7-0.2-7.4c0-0.7,0.1-1.3,0.2-2c0.1-0.7,0.2-1.4,0.3-2c0.3-1.3,0.6-2.8,1.2-4.1c0.2-0.7,0.5-1.3,0.8-2l1-1.9
			c0.3-0.7,0.7-1.3,1.1-1.9c0.4-0.6,0.8-1.2,1.2-1.8c0.9-1.1,1.8-2.4,2.9-3.4c0.5-0.5,1-1.1,1.6-1.5c0.6-0.5,1.1-0.9,1.7-1.4
			c0.6-0.5,1.2-0.9,1.8-1.3c0.6-0.4,1.2-0.8,1.8-1.2c1.3-0.7,2.5-1.4,3.9-1.9c0.6-0.3,1.3-0.5,1.9-0.8c0.7-0.2,1.3-0.4,2-0.6
			c1.3-0.4,2.6-0.6,3.9-0.9c0.6-0.1,1.3-0.2,1.9-0.3c0.6-0.1,1.3-0.1,1.9-0.2c1.2-0.1,2.3,0,3.4,0c2.3,0.1,4.2,0.3,6,0.4
			c1.8,0.1,3.3,0.3,4.5,0.4C47.4,17.3,48.8,17.4,48.8,17.4z"/>
		<path id="XMLID_127_" d="M52.2,125.5c0,0,0.8,0,2.2-0.1c1.4-0.1,3.5-0.2,6.2-0.3c5.4-0.2,13-0.5,22.2-0.7
			c4.6-0.1,9.6-0.2,14.8-0.3c5.3-0.1,10.8-0.2,16.6-0.2c5.8,0,11.7-0.1,17.7-0.1c6,0,12.2,0,18.3,0.1c6.1,0.1,12.3,0.1,18.3,0.2
			c6,0,12,0.2,17.7,0.3c2.8,0.1,5.6,0.1,8.4,0.2c1.4,0,2.8,0,4-0.2c0.6-0.1,1.2-0.1,1.8-0.2c0.6-0.1,1.2-0.3,1.8-0.4
			c4.9-1.1,9.2-3.2,12.6-5.8c3.4-2.6,6-5.6,7.8-8.6c1.9-2.9,2.8-5.8,3.5-8.2c0.6-2.4,0.8-4.4,0.9-5.7c0.1-1.3,0.1-2.1,0.1-2.1
			s0,0.7,0.1,2.1c0,1.3,0.1,3.3-0.3,5.9c-0.4,2.5-1.1,5.6-2.8,8.8c-1.6,3.2-4.1,6.7-7.7,9.7c-0.8,0.8-1.9,1.4-2.8,2.2
			c-1,0.7-2.1,1.3-3.2,2c-1.1,0.6-2.3,1.2-3.6,1.6c-1.3,0.4-2.5,1-3.9,1.3c-0.7,0.2-1.4,0.3-2,0.5c-0.7,0.1-1.4,0.2-2.1,0.3
			c-1.5,0.3-2.8,0.3-4.2,0.4l-0.5,0l-0.4,0h-0.3l-1.1,0c-0.7,0-1.4,0-2.1,0c-1.4,0-2.8,0-4.3,0c-5.8,0-11.7,0.1-17.7,0.1
			c-6,0-12.2,0-18.3-0.1c-6.1-0.1-12.3-0.1-18.3-0.2c-6-0.1-12-0.2-17.7-0.3c-5.8-0.1-11.3-0.3-16.6-0.4c-5.3-0.1-10.2-0.3-14.8-0.5
			c-9.2-0.3-16.9-0.7-22.2-1c-2.7-0.1-4.8-0.3-6.2-0.4C52.9,125.5,52.2,125.5,52.2,125.5z"/>
		<path id="XMLID_126_" d="M31.1,126.9c-2.3,0.3-4.6,0.6-6.9,0.8c-1.1,0.1-2.3,0.2-3.5,0.3l-3.5,0.3c-2.3,0.2-4.6,0.3-6.9,0.4
			c-2.3,0.1-4.6,0.2-6.9,0.2L1.4,129l-0.1-2.1c-0.2-7-0.2-14.1,0.1-21.1c0.2-3.5,0.4-7,0.7-10.5c0.1-0.9,0.1-1.8,0.3-2.6L2.7,90
			c0.2-1.8,0.5-3.5,0.8-5.3c0.3,1.8,0.6,3.5,0.8,5.3l0.3,2.6c0.1,0.9,0.2,1.8,0.3,2.6c0.4,3.5,0.6,7,0.7,10.5
			c0.3,7,0.3,14.1,0.1,21.1l-2.2-2.1c2.3,0.1,4.6,0.1,6.9,0.2s4.6,0.2,6.9,0.4l3.5,0.3c1.1,0.1,2.3,0.2,3.5,0.3
			C26.5,126.3,28.9,126.6,31.1,126.9z"/>
		<path id="XMLID_119_" d="M90.3,57.9c0-0.1-0.1-0.1-0.1-0.1c0,0,0,0,0-0.1L90.3,57.9z"/>
		<g id="XMLID_82_">
			<g id="XMLID_116_">
				<path id="XMLID_117_" d="M42.9,94.9c2.1-0.4,3.9-1.1,5.6-2.3c1.7-1.2,3.1-2.5,4.3-4.1c1.2-1.6,2.2-3.3,2.8-5.2
					c0.6-1.9,1-3.7,1-5.3c0-3.6-0.5-7.1-1.5-10.4c-1-3.3-2.5-6.3-4.5-9.1c-2.1-2.7-4.6-5.1-7.6-7.1c-3-2-6.6-3.4-10.7-4.3h-1.9
					c-2.7,0-4.9,0.5-6.7,1.4s-3.2,2.1-4.2,3.4c-1.1,1.4-1.9,3-2.3,4.7c-0.5,1.8-0.7,3.5-0.7,5.2c0,1.9,0.5,4.1,1.5,6.5
					c1,2.4,2.5,4.1,4.6,5.1c0.8,0.4,1.7,0.5,2.9,0.5c1.9,0,3.9-0.3,5.8-0.9c1-0.4,2-0.7,2.9-1.1c-0.6-0.7-1.3-1.7-1.9-2.8
					c-0.6-1.2-1.2-2.3-1.6-3.4c-0.5-1.2-0.8-2.2-1.2-3.2c-0.3-1-0.5-1.6-0.5-2c0-1,0.4-1.7,1.2-2.2c0.8-0.5,1.6-0.7,2.5-0.7
					c1.5,0,3.3,0.6,5.2,1.8c1.9,1.2,3.7,2.8,5.3,4.8c1.6,2,3,4.2,4.2,6.6c1.2,2.4,1.7,4.8,1.7,7.2c0,3.5-1.2,6.4-3.5,8.6
					s-5.2,3.3-8.5,3.3c-1.7,0-3.3-0.2-5-0.7c-1.7-0.5-3.2-1.1-4.6-1.8s-2.7-1.5-4-2.3c-1.2-0.8-2.3-1.5-3.2-2.1
					c-2.2-1.6-3.8-2.9-4.8-4.1s-1.8-2.1-2.2-2.8c-0.4-0.7-0.8-1.3-1-1.6c-0.2-0.4-0.5-0.5-0.9-0.5c-0.8,0-1.2,0.2-1.2,0.5
					c0,0.2,0.6,1.4,1.8,3.6c1.2,2.2,3,4.5,5.4,7.1c2.4,2.5,5.3,4.9,8.8,7s7.5,3.2,12,3.2C39.7,95.6,41.3,95.4,42.9,94.9z"/>
			</g>
			<path id="XMLID_115_" d="M194.2,41c-0.1-4-0.1-8-0.3-13.2c-0.1-3.1-0.2-5.9-0.3-8.4c0-0.9-0.1-1.8-0.1-2.7c0-0.4,0-0.7-0.1-1.1
				c-0.1-2.7-0.2-4.6-0.3-5.9c0.1-0.8,0.1-1.5,0.2-2.1l0.1-0.5l-0.6,0c-0.7,0-1.4,0.1-2.1,0.2c-1.5,0.2-3,0.6-4.5,1.3
				c-1.5,0.7-2.6,1.7-3.2,3.2c-0.3,0.6-0.5,1.2-0.6,1.9c-0.1,0.6-0.2,1.2-0.3,2.1c0,0.2,0,0.4,0,0.6c0.1,0.7,0.1,1.7,0.2,2.9
				c0,0.7,0.1,1.4,0.1,2.3l0.1,1.2c0.1,2.9,0.3,6.2,0.5,10c0.2,4,0.3,8,0.4,12c0.1,4.2,0.1,8.3,0,12.2c-0.1,3.9-0.4,7.6-0.8,10.9
				c-0.4,2.7-0.9,4.9-1.5,6.6c-0.1,0.4-0.3,0.7-0.4,1.1c-0.4,1-1,1.7-1.6,2c-0.1,0-0.1,0.1-0.2,0.1c-0.6,0.2-1.3,0.2-2.1-0.1
				c-0.1,0-0.2-0.1-0.3-0.1c-1.8-0.8-3.7-2.9-5.5-6.1c-0.8-1.3-1.4-2.9-1.9-4.7c-0.7-2.7-1.1-5.8-1.1-9.4l0-0.3l-0.3-0.1l-0.3-0.2
				l-0.2-0.1c-0.8-0.3-1.4-0.3-1.7-0.1l-0.2-0.1l-0.2,0.5h0l0,0.1l0.1,0l0,0.1c0,0.1,0,0.5-0.5,3.2c-0.4,2.2-0.5,4.8-0.2,7.8
				c0.1,0.8,0.2,1.7,0.4,2.5c0.4,2.2,1.2,4.3,2.3,6.5c1.5,3,4.3,5.4,8.3,7c0.8,0.3,1.9,0.6,3.2,0.7c0.5,0.1,1.1,0.1,1.7,0.1
				c0.1,0,0.3,0,0.5,0c1.1,0,2.1-0.2,3-0.7l0.4-0.2c1.8-1.3,3.5-3.3,5-6.1c1.4-2.5,2.3-5.1,2.8-6.9c0.1-0.2,0.1-0.4,0.1-0.5
				c0.1-0.3,0.2-0.5,0.2-0.8l0-0.1c0.1-0.2,0.1-0.5,0.2-0.7l0.1-0.6c0.1-0.4,0.1-0.8,0.2-1.2c0.5-3.7,0.9-7.7,1.1-12
				C194.3,50.2,194.3,45.7,194.2,41z"/>
			<g id="XMLID_112_">
				<path id="XMLID_114_" d="M90.3,57.9c0-0.1-0.1-0.1-0.1-0.1c0,0,0,0,0-0.1L90.3,57.9z"/>
				<path id="XMLID_113_" d="M90.7,68.8c-0.3,2.9-1.3,5.8-2.8,8.8c-0.7,1.4-1.8,2.7-3.1,3.7c-0.1,0.1-0.2,0.2-0.4,0.3
					c-0.7-0.2-1.4-0.3-2.1-0.3c-0.2,0-0.5,0-0.7,0c-2.2,0.2-4,1.3-5.2,2.9c-1.3-1.5-3.4-2.4-5.7-2.2c-0.4,0-0.9,0.1-1.3,0.2
					c-3-3.4-4.7-8.4-5.5-11.1c-0.1-0.4-0.3-0.9-0.4-1.4c0,0,0,0,0,0c-0.8-3.5-1.5-7.3-1.9-11.6c-0.6-5.6-0.9-11.2-1.1-16.5
					c-0.2-5.3-0.2-18.4-0.1-22.7c0.1-4.3,0.1-7.3,0.1-8.9l-0.3-4c-0.2-2.4-0.5-4.4-1-6.1c0.3,0,1,0,2.3,0c1.2,0,2.6,0.1,4.1,0.3
					c1.5,0.2,2.9,0.6,4.3,1.3c1.4,0.6,2.4,1.6,3,3c0.2,0.6,0.4,1.2,0.6,1.8S73.9,7.9,74,9c-0.1,1.4-0.3,3.5-0.5,6.3
					c-0.2,2.9-0.4,14.4-0.7,18.3s-0.5,7.8-0.7,12c-0.2,4.2-0.3,8.2-0.3,12.2c0.1,4,0.3,7.6,0.7,10.9c0.4,3.3,1,5.9,1.8,7.8
					c0.9,2.1,2.3,2.9,4.2,2.3c0.1,0,0.2-0.1,0.3-0.1c2-0.8,4.1-2.9,6.1-6.3c2.1-3.4,3.2-8.2,3.3-14.3l0.2-0.1l0.3-0.3
					c0.7-0.3,1.2-0.2,1.4,0.1c-0.1,0.2,0.1,1.3,0.4,3.3C91,63.3,91.1,65.9,90.7,68.8z"/>
			</g>
			<path id="XMLID_101_" d="M155.4,103.3c-0.1-0.9-0.2-1.7-0.3-2.4c-0.1-0.8-0.4-1.2-0.8-1.2c-0.4-0.1-1.3,0.2-2.6,0.7
				c-1.4,0.5-3.3,1-5.9,1.4c-2.5,0.5-5.8,0.8-9.6,0.9c-3.9,0.2-8.6-0.1-14-0.9c-5.6-0.8-10.9-1.8-15.8-3.2c-4.9-1.4-10-2.4-15.1-3.1
				c-3.8-0.5-7.9-0.8-12.1-0.9c-4.2-0.1-8.4,0.3-12.5,1.1c-4.1,0.8-8,2.1-11.8,4c-3.8,1.9-7.1,4.5-10,7.9c0,0-1,1.3-1.8,2.5
				c-2.6,3.8-4.2,7.7-4.8,11.6c-0.5,3.6-0.3,6.7,0.7,9.4c1,2.7,2.4,5,4.2,6.8c1.7,1.8,3.7,3.2,5.8,4.2c2.1,1,4.1,1.6,5.9,1.8
				c3.6,0.5,6.3,0.5,8.3,0.2c1.9-0.4,2.9-0.8,3-1.2c0.1-0.4-0.2-0.7-0.6-1c-0.2-0.1-0.4-0.2-0.6-0.3c-0.3,0-1,0-2.1,0.1
				c-1.1,0.1-2.6,0-4.4-0.2c-4.8-0.6-8.8-2.5-11.9-5.5s-4.2-7.2-3.4-12.4c0.6-4,2.4-7.7,5.3-11l0,0c0,0,1.2-1.4,2.2-2.2c0,0,0,0,0,0
				c5-3.5,10.1-5.7,15.6-6.6c5.4-0.9,11.2-1,17.5-0.1c3.4,0.5,6.7,1.1,9.8,1.9c2.6,0.7,5.3,1.5,8.1,2.4l0.1,0c0,0,0.3,0.1,0.7,0.2
				c0.2,0.1,0.4,0.1,0.5,0.2c0,0,0,0,0,0c1.7,0.5,4.7,1.5,7,2.3c-0.1,0-0.1-0.1-0.1-0.1c2.8,1,5.7,1.9,8.7,2.7s5.9,1.4,9,1.8
				c6.2,0.8,11.3,1,15.2,0.6c3.9-0.5,6.4-0.9,7.5-1.4c0.9-0.5,1.6-1.1,2.2-1.7c0.6-0.5,1.2-1.3,1.8-2.2c0.6-1,1-2.1,1.2-3.4
				C155.5,105.3,155.4,104.2,155.4,103.3z"/>
			<path id="XMLID_100_" d="M214.8,61c0.2,3.6,0.2,7.4-0.1,11.3c-0.3,3.9-1,7.8-2.2,11.6c-1.2,3.8-3,7.3-5.3,10.7
				c-2.3,3.4-5.4,6.3-9.3,8.6c0,0-1.5,0.8-2.8,1.5c-4.3,2.1-8.6,3.3-12.7,3.5c-3.9,0.2-7.2-0.3-10-1.5c-0.4-0.2-0.9-0.4-1.3-0.6
				c-2.2-1.1-4.1-2.4-5.6-3.9c-0.5-0.5-0.9-0.9-1.3-1.4c-1.1-1.4-2-2.8-2.6-4.3c-0.8-2.1-1.3-4-1.4-5.7c-0.2-3.4,0-5.9,0.5-7.7
				c0.5-1.8,1.1-2.7,1.6-2.7c0.4,0,0.7,0.2,1,0.7c0.1,0.2,0.2,0.4,0.2,0.5c0,0.2-0.1,0.9-0.3,1.9c-0.2,1-0.2,2.4-0.1,4.1
				c0.3,4.6,1.9,8.4,4.8,11.6c0.8,0.8,1.7,1.6,2.7,2.1c2.7,1.6,6.1,2.3,10.3,2.1c0.9,0,1.8-0.1,2.7-0.3c3.3-0.5,6.5-1.8,9.4-3.7l0,0
				c0,0,1.6-0.9,2.6-1.9c0,0,0,0,0.1,0c4.1-4.3,6.9-9,8.4-14c1.4-5,2-10.4,1.6-16.3c-0.2-3.3-0.6-6.3-1.2-9.3
				c-0.1-0.6-0.3-1.2-0.4-1.9c0,0,0,0,0,0c-0.3-3.9-0.9-7.7-1.8-11.5c-1.1-4.7-1.8-9.7-2.1-15c-0.2-3.8-0.2-7.2,0-10.2
				c0.1-1,0.2-2,0.3-3c0-0.3,0.1-0.6,0.1-0.8c0.5-3.2,1-5.9,1.7-8.1c0.7-2.3,1.4-4.1,2-5.4c0.3-0.6,0.5-1,0.7-1.4
				c1-0.4,2.1-0.6,3.3-0.7c1.6,0.2,2.8,0.3,3.7,0.4c0.9,0.1,1.8,0.3,2.6,0.5c0.8,0.2,1.2,0.5,1.2,0.8c0,0.4-0.3,1.2-0.9,2.4
				c-0.6,1.2-1.3,3-2,5.4c-0.5,1.7-0.9,3.6-1.3,5.9c-0.2,0.9-0.3,1.9-0.5,3c-0.1,0.3-0.1,0.6-0.1,1c-0.4,3.4-0.5,7.5-0.2,12.2
				c0.3,5.3,1,10.3,2.1,15C213.9,51.4,214.5,56.2,214.8,61z"/>
			<path id="XMLID_97_" d="M112.9,61.1l-0.4-0.2c-0.4-0.2-0.8-0.3-1.3-0.2l-0.3,0.2c-0.4,2.3-0.9,4.5-1.5,6.3
				c-0.8,2.3-1.8,4.2-3,5.7c-2,2.6-3.9,4.2-5.7,4.7c-0.1,0-0.2,0.1-0.3,0.1c-1.2,0.3-2.1,0.1-2.6-0.5c-0.5-0.6-1-1.5-1.3-2.6
				c-0.9-3.3-0.9-7-0.1-11.1c0.9-4.2,1.8-8.1,2.7-11.8l0.2,0c0.7-1.8,0.8-3.3,0.5-4.4c-0.4-1.5-1.2-2.7-2.4-3.4
				c-1.2-0.8-2.3-1.3-3.5-1.7c-1.2-0.4-2.2-0.6-3.1-0.7c-0.8-0.1-1.3-0.2-1.3-0.5c0.1,1.1-0.1,2.8-0.5,5.2c-0.4,2.4-0.9,5.1-1.3,8.2
				c-0.4,3.1-0.7,6.3-0.8,9.7c-0.1,3.4,0.3,6.7,1.2,9.7c1,3.5,2.6,6,4.8,7.5c1.3,1,2.7,1.5,4,1.7c1.3,0.1,2.5,0,3.6-0.2
				c0.1,0,0.1,0,0.2-0.1c3.3-0.8,5.8-2.4,7.5-4.8c1.7-2.4,2.9-4.8,3.6-7.4c0.3-1.1,0.6-2.2,0.7-3.2c0.2-1.2,0.3-2.4,0.3-3.4
				C112.8,62.1,112.9,61.2,112.9,61.1z"/>
			<path id="XMLID_83_" d="M176.1,52.3c-1.6-3.8-4.2-6.6-7.8-8.5c-3.6-1.8-7.5-3-11.8-3.4c-4.3-0.4-8.8-0.3-13.4,0.4
				c-0.4,0.1-0.9,0.1-1.3,0.2c-4.1,0.7-7.9,1.6-11.4,2.9c-2.7,1-5.4,2.2-8.2,3.7c-2.8,1.5-5.4,3.4-7.7,5.5c-0.4,0.4-0.8,0.8-1.1,1.1
				c-1.8,1.9-3.3,4-4.6,6.3c-1.3,2.4-2,5-2.2,7.9c0,0,0,0.1,0,0.1c0,0.1,0,0.1,0,0.1l0,0.8c0,1,0,2.5,0.2,4.3c0,0,0,0.1,0,0.1
				c0.1,1,0.3,2.1,0.5,3.1l0.1,0.2c0,0,0,0.1,0,0.2l0.1,0.2c0.1,0.4,0.3,0.9,0.5,1.5c0,0,0,0.1,0,0.1c0,0,0,0,0,0
				c1.9,4.6,4.6,8.2,8.2,10.8c2.1,1.6,4.3,2.9,6.4,4c1.4,0.7,2.7,1.3,4.1,1.8c3.5,1.3,6.6,2.1,9.3,2.4c2.1,0.2,3.3,0.3,4,0.3
				c0.6,0,0.8-0.1,1-0.1c0.3-0.1,0.5-0.3,0.9-0.6c0.3-0.2,0.9-0.9,0.4-2.1c-0.3-0.7-0.9-1.1-1.8-1.2c-0.2,0-0.8-0.1-2.1-0.4
				c-1-0.2-2.4-0.6-4.1-1.2c-1.5-0.5-3.5-1.3-5.7-2.3c-0.3-0.1-0.6-0.2-0.9-0.4c-2.2-1.1-4.5-2.6-6.8-4.6c-0.4-0.3-0.8-0.7-1.1-1.1
				c0,0-0.1-0.1-0.1-0.1c-0.3-0.3-0.6-0.7-0.9-1c-0.1-0.1-0.2-0.2-0.3-0.3c-0.1-0.1-0.2-0.2-0.3-0.3c-0.6-0.7-1-1.4-1.2-1.6
				c0,0,0,0,0,0c3.8,0.5,11.5,0.3,11.5,0.3c1.7,0,3.4,0,5.2,0c3.6-0.1,7.3-0.5,11.1-1.1c3.8-0.6,7.4-1.6,10.9-2.8
				c2.6-0.9,5.3-2.2,8.1-3.8c2.8-1.6,5.4-3.5,7.6-5.6c1.5-1.5,2.8-3.1,3.7-4.8c0.5-0.8,0.9-1.6,1.2-2.5
				C177.3,58.1,177.3,55.2,176.1,52.3z M153.1,66.5c-2.4,1.3-5.1,2.4-7.9,3.3c-2.4,0.7-5,1.4-7.9,1.8c-2.8,0.5-5.7,0.8-8.5,1.1
				c-0.1,0-0.2,0-0.3,0c-2.7,0.2-5.4,0.3-7.9,0.2c-2.3-0.1-4.4-0.2-6.2-0.3c-0.1-1.1-0.1-2.2,0.1-3.2c0.2-1.4,0.7-2.9,1.5-4.2
				c1.4-2.5,3.4-4.7,5.8-6.4c0.6-0.4,1.2-0.8,1.8-1.2c1.9-1.2,4-2.2,6.1-3c2.9-1,6.2-1.8,9.8-2.4c0.7-0.1,1.4-0.2,2.1-0.3
				c2.9-0.3,5.7-0.4,8.5-0.3c3.4,0.2,6.3,0.6,8.8,1.4c2.2,0.7,3.6,1.7,4.2,3c0.3,0.8,0.1,1.7-0.5,2.8v0c-0.7,1.3-1.9,2.6-3.5,3.8
				c-0.3,0.2-0.7,0.5-1,0.8C156.7,64.4,155,65.4,153.1,66.5z"/>
		</g>
		
			<linearGradient id="XMLID_00000026131254900130969190000014390154427630555796_" gradientUnits="userSpaceOnUse" x1="117.6789" y1="69.5566" x2="116.722" y2="69.5016" gradientTransform="matrix(1 0 0 -1 0 151.4016)">
			<stop  offset="0" style="stop-color:#FFFFFF"/>
			<stop  offset="1" style="stop-color:#000000"/>
		</linearGradient>
		
			<path id="XMLID_81_" style="opacity:0.53;fill:url(#XMLID_00000026131254900130969190000014390154427630555796_);enable-background:new    ;" d="
			M116.9,81.1c0.1,0.2,0.6,0.9,1.2,1.6H118C117.6,82.1,117.2,81.6,116.9,81.1z"/>
		<g id="XMLID_1_">
			<path id="XMLID_13_" d="M175.1,147.9c-0.9,0-1.8-0.2-2.5-0.7c-0.8-0.4-1.4-0.9-1.9-1.4v5.6c0,0.2-0.1,0.4-0.2,0.5
				s-0.3,0.2-0.5,0.2c-0.2,0-0.4-0.1-0.5-0.2s-0.2-0.3-0.2-0.5v-9.1c0-0.8,0.2-1.5,0.5-2.2c0.3-0.7,0.7-1.3,1.3-1.8s1.2-0.9,1.9-1.1
				c0.7-0.3,1.5-0.4,2.3-0.4c0.8,0,1.6,0.1,2.3,0.4c0.7,0.3,1.4,0.7,1.9,1.2s0.9,1.1,1.3,1.8c0.3,0.7,0.5,1.4,0.5,2.1
				c0,0.8-0.2,1.5-0.5,2.2c-0.3,0.7-0.8,1.3-1.3,1.8c-0.5,0.5-1.2,0.9-1.9,1.2C176.6,147.7,175.9,147.9,175.1,147.9z M170.6,142.3
				c0,0.6,0.1,1.1,0.4,1.7c0.2,0.5,0.6,0.9,1,1.3s0.9,0.7,1.4,0.9c0.5,0.2,1.1,0.3,1.7,0.3c0.6,0,1.2-0.1,1.7-0.3
				c0.5-0.2,1-0.5,1.4-0.9c0.4-0.4,0.7-0.8,0.9-1.3c0.2-0.5,0.3-1,0.3-1.6s-0.1-1.1-0.3-1.6s-0.5-0.9-0.9-1.3
				c-0.4-0.4-0.9-0.7-1.4-0.9c-0.5-0.2-1.1-0.3-1.7-0.3s-1.2,0.1-1.7,0.3c-0.5,0.2-1,0.5-1.4,0.9s-0.7,0.8-0.9,1.3
				C170.8,141.2,170.6,141.7,170.6,142.3z"/>
			<path id="XMLID_11_" d="M181.7,142.2c0-0.8,0.1-1.5,0.4-2.1s0.7-1.3,1.2-1.8c0.5-0.5,1.1-0.9,1.9-1.2c0.7-0.3,1.5-0.4,2.3-0.5
				c0.3,0,0.5,0.1,0.6,0.2s0.2,0.3,0.2,0.5s-0.1,0.4-0.2,0.5c-0.2,0.1-0.4,0.2-0.6,0.2c-0.6,0-1.1,0.1-1.7,0.4
				c-0.5,0.2-1,0.5-1.4,0.9c-0.4,0.4-0.7,0.8-0.9,1.3s-0.3,1-0.3,1.6v4.9c0,0.2-0.1,0.4-0.2,0.5s-0.3,0.2-0.5,0.2
				c-0.2,0-0.4-0.1-0.5-0.2s-0.2-0.3-0.2-0.5V142.2z"/>
			<path id="XMLID_8_" d="M188.9,134.2c0-0.3,0.1-0.5,0.3-0.7c0.2-0.2,0.4-0.3,0.7-0.3c0.3,0,0.5,0.1,0.7,0.3
				c0.2,0.2,0.3,0.4,0.3,0.7s-0.1,0.5-0.3,0.7c-0.2,0.2-0.4,0.3-0.7,0.3c-0.3,0-0.5-0.1-0.7-0.3S188.9,134.5,188.9,134.2z
				 M189.1,137.4c0-0.2,0.1-0.4,0.2-0.5s0.3-0.2,0.5-0.2c0.2,0,0.4,0.1,0.5,0.2s0.2,0.3,0.2,0.5v9.8c0,0.2-0.1,0.4-0.2,0.5
				s-0.3,0.2-0.5,0.2c-0.2,0-0.4-0.1-0.5-0.2s-0.2-0.3-0.2-0.5V137.4z"/>
			<path id="XMLID_4_" d="M191.9,142.2c0-0.8,0.2-1.5,0.5-2.2c0.3-0.7,0.7-1.3,1.3-1.8c0.5-0.5,1.2-0.9,1.9-1.2
				c0.7-0.3,1.5-0.4,2.3-0.4c0.8,0,1.6,0.1,2.3,0.4c0.7,0.3,1.4,0.7,1.9,1.2s0.9,1.1,1.3,1.8c0.3,0.7,0.5,1.4,0.5,2.2v4.9
				c0,0.2-0.1,0.4-0.2,0.5s-0.3,0.2-0.5,0.2c-0.2,0-0.4-0.1-0.5-0.2s-0.2-0.3-0.2-0.5v-4.9c0-0.6-0.1-1.1-0.3-1.6s-0.6-0.9-0.9-1.3
				c-0.4-0.4-0.9-0.7-1.4-0.9c-0.5-0.2-1.1-0.3-1.7-0.3s-1.2,0.1-1.7,0.3c-0.5,0.2-1,0.5-1.4,0.9s-0.7,0.8-0.9,1.3s-0.3,1-0.3,1.6
				v4.9c0,0.2-0.1,0.4-0.2,0.5s-0.3,0.2-0.5,0.2c-0.2,0-0.4-0.1-0.5-0.2s-0.2-0.3-0.2-0.5L191.9,142.2L191.9,142.2z"/>
			<path id="XMLID_2_" d="M205,133.8c0-0.2,0.1-0.4,0.2-0.5s0.3-0.2,0.5-0.2s0.4,0.1,0.5,0.2s0.2,0.3,0.2,0.5v2.8h5.4
				c0.3,0,0.5,0.1,0.6,0.2s0.2,0.3,0.2,0.5s-0.1,0.4-0.2,0.5c-0.2,0.1-0.4,0.2-0.6,0.2h-5.4v4.3c0,0.6,0.1,1.1,0.3,1.6
				s0.5,0.9,0.9,1.3c0.4,0.4,0.9,0.7,1.4,0.9s1.1,0.3,1.7,0.3s1.2-0.1,1.7-0.3c0.5-0.2,1-0.5,1.4-0.9c0.1-0.1,0.3-0.2,0.5-0.2
				s0.4,0,0.6,0.1c0.1,0.1,0.2,0.3,0.2,0.5c0,0.2,0,0.4-0.1,0.5c-0.5,0.5-1.2,1-1.9,1.3c-0.7,0.3-1.5,0.4-2.4,0.4
				c-0.8,0-1.6-0.1-2.3-0.4c-0.7-0.3-1.4-0.7-1.9-1.2s-0.9-1.1-1.3-1.8c-0.3-0.7-0.5-1.4-0.5-2.2L205,133.8L205,133.8z"/>
		</g>
	</g>
	<path id="XMLID_131_" class="st5" d="M108.4,43.5c-1-2.1-2-4.2-2.9-6.4c-0.6-1.5-1.4-2.6-3.2-3.1c-1.2-0.3-2.2-1.1-2.3-2.4
		c-0.2-1.5,0.5-2.6,1.7-3.4c1-0.7,2-0.8,2.6,0.4c1.3,2.5,2.6,4.9,3.8,7.4c0.4,0.8,0.7,1.6,1.2,2.8c0.6-2.2,1.1-4.1,1.6-6
		c0.8-2.6,1.7-5.1,4.3-6.7c1.3-0.9,3.1-0.5,4.2,1.2c0.4,0.6-0.3,1.8-0.7,2.7c-0.1,0.2-1,0.2-1.4,0c-3-1.3-3.3-1.3-4.3,1.6
		c-0.9,2.5-1.4,5.1-2.2,7.7c-0.5,1.5-1.2,2.9-1.8,4.3C108.9,43.6,108.7,43.5,108.4,43.5z"/>
	<path id="XMLID_130_" class="st5" d="M163.3,106.8c-0.2,1.1-0.4,1.9-0.5,2.7c-0.2,1.4-0.2,2.8,0.9,4c1.1,1.1,2.1,0.9,2.9-0.4
		c0.3-0.4,0.6-0.9,0.9-1.3c0.2,0.1,0.4,0.2,0.6,0.3c-0.7,1.4-1.2,3-2,4.3c-1,1.6-2.8,1.5-4.1,0.2c-1.3-1.4-1.3-3-1.1-4.7
		C160.9,110.1,161.8,108.2,163.3,106.8z"/>
	<path id="XMLID_129_" class="st5" d="M21.2,100.2c-0.3,1.4-0.6,2.7-0.8,4c-0.4,2.1-0.3,4.1,1.4,5.8c1.7,1.7,3.3,1.5,4.6-0.6
		c0.4-0.7,0.9-1.3,1.4-1.9c0.2,0.1,0.4,0.2,0.6,0.4c-0.7,1.9-1.3,3.8-2.2,5.6c-0.8,1.6-2.1,2.8-4.2,2.8c-2-0.1-3-1.5-3.9-2.9
		C16.4,110.5,17.6,102.9,21.2,100.2z"/>
	<path id="XMLID_123_" class="st5" d="M54,118c0.7-0.2,1.4-0.3,2.1-0.5c5.4-1.1,10.5-2.9,15.4-5.2c0.8-0.4,1.6-0.7,2.4-0.9
		c1.6-0.4,3.1-0.3,4.4,0.8c0.8,0.7,1.4,0.6,2.2-0.2c1.8-1.6,3.9-2.7,6.5-2.6c0.8,0,1.6,0.3,2.2,0.8c0.4,0.3,0.7,1,0.6,1.5
		c-0.5,3.1-2.8,4.9-6.1,4.8c-0.8,0-1.7-0.1-2.5-0.3c-1.1-0.4-1.9-0.2-2.7,0.5c-0.3,0.2-0.7,0.4-1.2,0.4c0.2-0.5,0.4-1,0.6-1.5
		c-0.9-1.1-2.1-1.7-3.6-1.3c-2.5,0.7-5.1,1.4-7.6,2.3C62.6,118.1,58.4,118.7,54,118z M81.3,113.5c2.4,0.6,4.6,0.9,6.8-0.3
		C85.8,111.8,83.5,111.9,81.3,113.5z"/>
	<g id="XMLID_121_">
		<path id="XMLID_122_" class="st5" d="M53.5,21.5C48.2,29.6,42.1,32.3,38,33.3c-0.8,0.2-3.3,0.6-4.1,0.7c-10.7,1.9-14.6,7-14.6,7
			c12.8-3.3,22.4,1,27.8,4.8l5.3,4.6C47.7,35,51.5,25.2,53.5,21.5z"/>
	</g>
	<path id="XMLID_120_" class="st5" d="M216.8,90.7c0,0,5.3,19.4-11.7,27s-31.9-5.1-31.9-5.1S202.2,118.6,216.8,90.7z"/>
	<g id="XMLID_16_">
		<path id="XMLID_78_" class="st5" d="M30.1,135.5c0.4,0,0.6-0.1,0.9-0.3c0.2-0.2,0.4-0.5,0.4-0.8s-0.1-0.6-0.4-0.8
			c-0.2-0.2-0.5-0.3-0.9-0.3H19.7c-0.4,0-0.6,0.1-0.9,0.3c-0.2,0.2-0.4,0.5-0.4,0.8V150c0,0.3,0.1,0.6,0.4,0.8
			c0.2,0.2,0.5,0.3,0.9,0.3h10.3c0.4,0,0.6-0.1,0.9-0.3s0.4-0.5,0.4-0.8s-0.1-0.6-0.4-0.8c-0.2-0.2-0.5-0.3-0.9-0.3H21v-5.5h6.4
			c0.4,0,0.6-0.1,0.9-0.3c0.2-0.2,0.4-0.5,0.4-0.8s-0.1-0.6-0.4-0.8c-0.2-0.2-0.5-0.3-0.9-0.3H21v-5.4L30.1,135.5L30.1,135.5z"/>
		<path id="XMLID_77_" class="st5" d="M44.5,148.8h-9.1v-14.5c0-0.3-0.1-0.6-0.4-0.8c-0.5-0.4-1.3-0.4-1.8,0
			c-0.2,0.2-0.4,0.5-0.4,0.8V150c0,0.3,0.1,0.6,0.4,0.8c0.2,0.2,0.5,0.3,0.9,0.3h10.3c0.3,0,0.7-0.1,0.9-0.3s0.4-0.5,0.4-0.8
			s-0.1-0.6-0.4-0.8C45.2,148.9,44.9,148.8,44.5,148.8z"/>
		<path id="XMLID_76_" class="st5" d="M81.9,141.8c-0.6-0.5-1.3-0.9-2.2-1.2c-0.8-0.3-1.7-0.5-2.6-0.6c-0.4-0.1-0.9-0.1-1.4-0.3
			s-0.9-0.3-1.3-0.5c-0.4-0.2-0.7-0.4-1-0.7c-0.2-0.2-0.3-0.5-0.3-0.8c0-0.3,0.1-0.6,0.3-0.8c0.2-0.3,0.5-0.5,0.8-0.7
			c0.4-0.2,0.8-0.4,1.3-0.5c1-0.2,2.2-0.3,3.2,0c0.5,0.1,0.9,0.3,1.3,0.5c0.4,0.2,0.7,0.4,0.8,0.7c0.2,0.2,0.3,0.5,0.3,0.8
			c0,0.4,0.2,0.7,0.4,0.9c0.5,0.5,1.3,0.5,1.8,0c0.2-0.2,0.4-0.5,0.4-0.8c0-0.6-0.2-1.3-0.5-1.8c-0.3-0.6-0.8-1-1.4-1.4
			c-0.6-0.4-1.3-0.7-2.1-1c-1.6-0.5-3.5-0.5-5,0c-0.8,0.2-1.5,0.6-2.1,1c-0.6,0.4-1.1,0.9-1.4,1.4c-0.3,0.6-0.5,1.2-0.5,1.8
			c0,0.7,0.2,1.3,0.6,1.8c0.4,0.5,0.8,1,1.4,1.4c0.6,0.4,1.3,0.7,2.1,0.9c0.8,0.2,1.6,0.4,2.4,0.4c0.6,0.1,1.1,0.2,1.7,0.4
			c0.5,0.2,1,0.4,1.4,0.7c0.4,0.3,0.7,0.6,1,1c0.2,0.4,0.4,0.8,0.4,1.1c0,0.4-0.1,0.9-0.3,1.2c-0.2,0.4-0.6,0.7-1,1
			c-0.4,0.3-0.9,0.5-1.5,0.7c-1.1,0.4-2.5,0.4-3.6,0c-0.6-0.2-1-0.4-1.4-0.7c-0.4-0.3-0.7-0.6-0.9-1c-0.2-0.4-0.3-0.8-0.3-1.3
			c0-0.3-0.1-0.6-0.4-0.8c-0.5-0.4-1.2-0.4-1.7,0c-0.2,0.2-0.4,0.5-0.4,0.8c0,0.8,0.2,1.5,0.6,2.2c0.4,0.7,0.9,1.3,1.5,1.8
			c0.6,0.5,1.4,0.9,2.2,1.2s1.7,0.4,2.7,0.4c1,0,1.9-0.1,2.7-0.4c0.8-0.3,1.6-0.7,2.2-1.2c0.6-0.5,1.2-1.1,1.5-1.8
			c0.4-0.7,0.6-1.4,0.6-2.2c0-0.8-0.2-1.5-0.5-2.1C83,142.8,82.5,142.3,81.9,141.8z"/>
		<path id="XMLID_40_" class="st5" d="M94.9,134L94.9,134c-0.1-0.2-0.2-0.4-0.4-0.6c-0.4-0.4-1.1-0.4-1.5,0
			c-0.2,0.2-0.3,0.4-0.4,0.5l-7,15.6c-0.1,0.3-0.1,0.6,0,0.9s0.4,0.5,0.7,0.6c0.3,0.1,0.7,0.1,1,0c0.3-0.1,0.5-0.3,0.7-0.6l1.1-2.3
			h9.5l1.1,2.3c0.1,0.3,0.3,0.5,0.7,0.6c0.2,0.1,0.3,0.1,0.5,0.1c0.2,0,0.3,0,0.5-0.1c0.3-0.1,0.6-0.3,0.7-0.6s0.1-0.6,0-0.9
			L94.9,134z M97.4,145.8H90l3.7-8.3L97.4,145.8z"/>
		<path id="XMLID_26_" class="st5" d="M117.3,134.2L117.3,134.2c0-0.3-0.2-0.6-0.5-0.8s-0.6-0.3-0.9-0.3c-0.3,0-0.6,0.2-0.8,0.4
			l-7.1,8.3l-7-8.3c-0.2-0.2-0.5-0.4-0.8-0.4c-0.3,0-0.6,0.1-0.9,0.3c-0.3,0.2-0.4,0.5-0.5,0.8s0.1,0.6,0.3,0.8l7.6,9.1v5.8
			c0,0.3,0.1,0.6,0.4,0.8c0.2,0.2,0.6,0.3,0.9,0.3c0.3,0,0.7-0.1,0.9-0.3c0.2-0.2,0.4-0.5,0.4-0.8v-5.8l7.8-9.1
			C117.3,134.8,117.3,134.5,117.3,134.2z"/>
		<path id="XMLID_23_" class="st5" d="M123.6,134L123.6,134c-0.1-0.2-0.2-0.4-0.4-0.6c-0.4-0.4-1.1-0.4-1.5,0
			c-0.2,0.2-0.3,0.4-0.4,0.5l-7,15.6c-0.1,0.3-0.1,0.6,0,0.9s0.4,0.5,0.7,0.6c0.2,0.1,0.3,0.1,0.5,0.1c0.2,0,0.3,0,0.5-0.1
			c0.3-0.1,0.5-0.3,0.7-0.6l1.1-2.3h9.5l1.1,2.3c0.1,0.3,0.4,0.5,0.7,0.6c0.3,0.1,0.6,0.1,1,0c0.3-0.1,0.6-0.3,0.7-0.6
			s0.1-0.6,0-0.9L123.6,134z M126.1,145.8h-7.4l3.7-8.3L126.1,145.8z"/>
		<path id="XMLID_20_" class="st5" d="M141.4,134L141.4,134c-0.1-0.2-0.2-0.4-0.4-0.6c-0.4-0.4-1.1-0.4-1.5,0
			c-0.2,0.2-0.3,0.4-0.4,0.5l-7,15.6c-0.1,0.3-0.1,0.6,0,0.9c0.1,0.3,0.4,0.5,0.7,0.6c0.3,0.1,0.7,0.1,1,0c0.3-0.1,0.5-0.3,0.7-0.6
			l1.1-2.3h9.5l1.1,2.3c0.1,0.3,0.4,0.5,0.7,0.6c0.2,0.1,0.3,0.1,0.5,0.1c0.2,0,0.3,0,0.5-0.1c0.3-0.1,0.6-0.3,0.7-0.6
			s0.1-0.6,0-0.9L141.4,134z M143.9,145.8h-7.4l3.7-8.3L143.9,145.8z"/>
		<path id="XMLID_17_" class="st5" d="M165.5,138.7c-0.5-1.1-1.2-2.1-2.1-2.9c-0.9-0.8-1.9-1.5-3.1-1.9s-2.4-0.7-3.8-0.7h-5
			c-0.4,0-0.6,0.1-0.9,0.3c-0.2,0.2-0.4,0.5-0.4,0.8V150c0,0.3,0.1,0.6,0.4,0.8c0.2,0.2,0.6,0.3,0.9,0.3h5c1.3,0,2.6-0.2,3.8-0.7
			c1.2-0.5,2.2-1.1,3.1-1.9s1.6-1.8,2.1-2.9c0.5-1.1,0.8-2.3,0.8-3.5C166.2,141,166,139.8,165.5,138.7z M156.5,148.8h-3.8v-13.3h3.8
			c1,0,1.9,0.2,2.8,0.5s1.6,0.8,2.3,1.4c0.6,0.6,1.2,1.3,1.5,2.1s0.6,1.7,0.6,2.6c0,0.9-0.2,1.8-0.6,2.6s-0.9,1.5-1.5,2.1
			s-1.4,1.1-2.3,1.4C158.4,148.6,157.5,148.8,156.5,148.8z"/>
	</g>
</g>
</svg>
