<?xml version="1.0" encoding="utf-8"?>
<!-- Generator: Adobe Illustrator 28.0.0, SVG Export Plug-In . SVG Version: 6.00 Build 0)  -->
<svg version="1.1" id="Layer_1" xmlns="http://www.w3.org/2000/svg" xmlns:xlink="http://www.w3.org/1999/xlink" x="0px" y="0px"
	 viewBox="0 0 314.87 81.35" style="enable-background:new 0 0 314.87 81.35;" xml:space="preserve">
<style type="text/css">
	.st0{fill:#F37021;}
	.st1{fill:url(#XMLID_00000181779248332568386460000000421447057975766697_);}
	.st2{fill:url(#XMLID_00000070802174537751841440000009866972463314039973_);}
	.st3{fill:url(#XMLID_00000041286447385828535320000003982350927142884756_);}
	.st4{fill:url(#XMLID_00000018947197789112973710000014454372577020684678_);}
	.st5{fill:#010101;}
	.st6{opacity:0.53;fill:url(#XMLID_00000002356085469699537320000005052619562167047607_);enable-background:new    ;}
	.st7{fill:#F37124;}
</style>
<g>
	<path class="st0" d="M18.09,34c0.15-0.25,0.36-0.36,0.63-0.34c0.27,0.02,0.46,0.16,0.57,0.43l0.66,1.57
		c0.46,1.08,0.77,2.46,0.94,4.13c0.02,0.23,0.03,0.47,0.04,0.71c0.01,0.25,0.01,0.49,0.01,0.74c0,1.29-0.15,2.7-0.46,4.22
		c-0.25,1.08-0.64,2.15-1.18,3.21c-0.54,1.05-1.27,2.12-2.18,3.21c-1.35,1.52-2.83,2.71-4.45,3.56h0.03
		c-1.31,0.72-3.25,1.4-5.81,2.02c-1.24,0.3-2.35,0.58-3.33,0.83c-0.99,0.25-1.88,0.48-2.68,0.68c-0.32,0.09-0.57,0.02-0.74-0.21
		c-0.17-0.24-0.18-0.5-0.03-0.78l4.19-7.52c0.04-0.04,0.11-0.1,0.21-0.19c0.11-0.09,0.2-0.14,0.27-0.16
		c0.85-0.15,1.76-0.34,2.71-0.56c0.95-0.22,1.95-0.47,2.99-0.76c0.99-0.27,1.89-0.53,2.71-0.8c0.82-0.27,1.55-0.54,2.19-0.83
		c-0.04-0.32-0.11-0.69-0.2-1.11c-0.1-0.42-0.2-0.87-0.31-1.37c-0.21-0.66-0.41-1.31-0.6-1.94c-0.19-0.63-0.39-1.22-0.6-1.77
		c-0.04-0.08-0.04-0.18-0.01-0.3c0.03-0.12,0.06-0.22,0.1-0.3L18.09,34z"/>
	<path class="st0" d="M25.46,26.02l3.68-6.78c0.08-0.15,0.19-0.26,0.33-0.31c0.14-0.06,0.28-0.07,0.41-0.04s0.25,0.1,0.36,0.2
		c0.1,0.1,0.17,0.24,0.18,0.41l2.17,32.28L29,58.61c-0.1,0.17-0.21,0.29-0.34,0.34c-0.13,0.06-0.27,0.07-0.41,0.04
		c-0.14-0.03-0.27-0.1-0.37-0.21c-0.11-0.11-0.16-0.26-0.16-0.43L25.46,26.02z"/>
	<path class="st0" d="M41.16,70.72c-0.04,0.08-0.11,0.15-0.21,0.23c-0.11,0.08-0.19,0.12-0.24,0.14l-5.76,1.08l-4.93,0.91
		c-0.3,0.06-0.54-0.02-0.7-0.24c-0.16-0.22-0.18-0.46-0.04-0.73l3.3-6.64c0.04-0.08,0.11-0.15,0.21-0.23c0.1-0.08,0.2-0.12,0.3-0.14
		c1.96-0.34,3.81-0.68,5.57-1.01c1.76-0.33,3.45-0.66,5.09-0.98c0.3-0.06,0.54,0.02,0.71,0.24s0.18,0.46,0.03,0.73L41.16,70.72z"/>
	<path class="st0" d="M39.97,57.64c-0.49,0-0.8-0.22-0.91-0.66c-0.61,0.21-1.3,0.41-2.07,0.6c-0.77,0.19-1.59,0.37-2.46,0.54
		c-1.04,0.19-2.12,0.37-3.23,0.53c-1.11,0.16-2.07,0.28-2.86,0.36c-0.23,0.02-0.42-0.05-0.57-0.21c-0.15-0.16-0.21-0.36-0.17-0.58
		l1.2-7.15c0.02-0.15,0.09-0.28,0.21-0.4c0.12-0.11,0.26-0.18,0.41-0.2c3.42-0.3,6.19-0.65,8.32-1.04c2.13-0.39,3.61-0.8,4.44-1.24
		c0.97-0.59,1.68-1.41,2.14-2.45c0.11-0.21,0.25-0.36,0.4-0.44c0.15-0.09,0.29-0.13,0.43-0.13c0.51,0,0.77,0.33,0.77,1
		c0,0.23-0.01,0.42-0.03,0.57c-0.02,0.15-0.04,0.26-0.06,0.31v-0.03c-0.21,0.68-0.48,1.44-0.8,2.28c-0.32,0.84-0.69,1.75-1.11,2.74
		c-0.87,2.01-2.04,3.81-3.5,5.39c-0.04,0.04-0.11,0.09-0.23,0.14c-0.11,0.06-0.2,0.09-0.26,0.09H39.97z"/>
	<path class="st0" d="M57.63,45.76c-0.08,0.23-0.15,0.43-0.21,0.6s-0.14,0.36-0.23,0.57c-0.08,0.21-0.18,0.46-0.3,0.75
		c-0.11,0.29-0.27,0.67-0.46,1.13c0.4-0.04,0.76-0.09,1.08-0.14c0.32-0.06,0.65-0.12,0.97-0.2c1.58-1.84,3.2-3.65,4.87-5.43
		c1.67-1.78,3.41-3.52,5.21-5.23c1.01-0.89,2.44-1.52,4.3-1.88c0.27-0.06,0.5-0.09,0.7-0.11c0.2-0.02,0.39-0.03,0.58-0.03
		c1.42,0,2.57,0.52,3.45,1.57c0.8,1.01,1.2,2.02,1.2,3.05c0,0.67-0.19,1.4-0.57,2.19v-0.03c-0.84,1.63-1.73,3.08-2.68,4.33
		c-1.37,1.84-3.05,3.4-5.06,4.67s-4.19,2.36-6.57,3.25l-3.31,0.85c-1.58,0.44-3.01,0.75-4.3,0.94c-0.46,0.08-0.9,0.13-1.33,0.17
		c-0.43,0.04-0.84,0.06-1.24,0.06c-0.48,0-0.88-0.03-1.23-0.09c-0.91-0.11-1.46-0.47-1.65-1.08c-0.63,0.23-1.33,0.44-2.11,0.63
		c-0.78,0.19-1.62,0.37-2.54,0.54c-0.51,0.1-1.04,0.19-1.6,0.27s-1.09,0.17-1.62,0.26s-1.04,0.16-1.52,0.21
		c-0.48,0.06-0.93,0.1-1.32,0.14c-0.25,0.02-0.45-0.05-0.6-0.21c-0.15-0.16-0.21-0.36-0.17-0.58l1.25-7.44
		c0.04-0.15,0.11-0.28,0.23-0.38c0.11-0.1,0.25-0.17,0.4-0.19c3.42-0.25,6.19-0.54,8.3-0.88c2.12-0.34,3.6-0.72,4.43-1.14
		c0.46-0.29,0.87-0.63,1.24-1.04c0.37-0.41,0.66-0.88,0.87-1.41c0.25-0.38,0.52-0.57,0.83-0.57c0.51,0,0.77,0.33,0.77,1
		c0,0.23-0.01,0.42-0.03,0.57C57.67,45.6,57.65,45.71,57.63,45.76z M71.54,44.45c-0.27-0.44-0.76-0.77-1.48-1
		c-0.15-0.04-0.3-0.07-0.44-0.09s-0.29-0.03-0.44-0.03c-0.42,0-0.82,0.1-1.2,0.29c-0.91,0.49-1.76,1.1-2.54,1.81
		c-0.78,0.71-1.55,1.45-2.31,2.21c1.6-0.32,3.12-0.68,4.56-1.08s2.79-0.9,4.05-1.51v-0.03C71.7,44.87,71.63,44.68,71.54,44.45z"/>
	<path class="st0" d="M87.72,54.85c-0.38,1.44-0.94,2.77-1.67,3.99c-0.73,1.22-1.64,2.31-2.72,3.28c-1.03,0.89-2.17,1.72-3.43,2.49
		c-1.26,0.77-2.58,1.41-3.95,1.92c-1.39,0.51-2.8,0.94-4.23,1.28c-1.43,0.34-2.89,0.59-4.37,0.74c-0.66,0.06-1.31,0.1-1.94,0.14
		c-0.63,0.04-1.24,0.06-1.85,0.06c-0.8,0-1.55-0.03-2.27-0.09c-0.71-0.06-1.39-0.13-2.04-0.23c-1.29-0.21-2.34-0.62-3.15-1.23
		c-0.81-0.61-1.32-1.38-1.55-2.31c-0.09-0.38-0.16-0.75-0.19-1.1c-0.03-0.35-0.04-0.7-0.04-1.04c0-0.61,0.04-1.22,0.13-1.84
		c0.09-0.62,0.23-1.25,0.44-1.9c0.65-2.09,1.53-4.1,2.65-6.04c0.49-0.84,0.97-1.61,1.42-2.32c0.46-0.71,0.87-1.34,1.25-1.9
		c0.17-0.19,0.38-0.31,0.64-0.37c0.26-0.06,0.48-0.04,0.68,0.04c0.2,0.09,0.33,0.25,0.4,0.48c0.07,0.24-0.01,0.55-0.21,0.93v-0.03
		c-1.41,2.75-2.11,4.98-2.11,6.67c0,1.06,0.28,1.85,0.85,2.36c1.58,1.46,3.9,2.14,6.98,2.02c1.6-0.08,3.19-0.27,4.79-0.58
		c1.59-0.31,3.23-0.76,4.9-1.35c1.5-0.53,2.72-0.99,3.66-1.38c0.94-0.39,1.61-0.74,2.01-1.04c0-1.42-0.04-2.97-0.12-4.64
		c-0.08-1.67-0.19-3.54-0.34-5.61l-0.68-10.8l4.3-7.04c0.09-0.13,0.21-0.22,0.36-0.27c0.14-0.05,0.28-0.06,0.41-0.03
		c0.13,0.03,0.25,0.1,0.36,0.21c0.1,0.11,0.16,0.26,0.16,0.43l1.14,19.8c0,0.13,0,0.27,0.01,0.41c0.01,0.14,0.02,0.29,0.02,0.44
		c0,0.91-0.06,1.81-0.19,2.71C88.13,53.04,87.95,53.94,87.72,54.85z"/>
	<path class="st0" d="M94.08,26.05l4.27-6.78c0.09-0.15,0.21-0.25,0.36-0.3c0.14-0.05,0.28-0.06,0.41-0.03
		c0.13,0.03,0.25,0.1,0.34,0.2c0.1,0.1,0.15,0.24,0.17,0.41l1.62,24.19l-4.3,6.78c-0.19,0.3-0.44,0.42-0.74,0.34
		c-0.3-0.08-0.47-0.28-0.51-0.63L94.08,26.05z"/>
	<path d="M135.88,67.62c-0.04,0.08-0.11,0.15-0.21,0.23c-0.11,0.08-0.19,0.12-0.24,0.14l-5.76,1.08l-4.93,0.91
		c-0.3,0.06-0.54-0.02-0.7-0.24c-0.16-0.22-0.18-0.46-0.04-0.73l3.3-6.64c0.04-0.08,0.11-0.15,0.21-0.23c0.1-0.08,0.2-0.12,0.3-0.14
		c1.96-0.34,3.81-0.68,5.57-1.01c1.76-0.33,3.45-0.66,5.09-0.98c0.3-0.06,0.54,0.02,0.71,0.24s0.18,0.46,0.03,0.73L135.88,67.62z"/>
	<path d="M117.84,57.76c-2.64-1.48-4.16-3.51-4.56-6.1c-0.06-0.38-0.1-0.76-0.12-1.15c-0.02-0.39-0.03-0.8-0.03-1.24
		c0-0.85,0.07-1.75,0.2-2.68c0.13-0.93,0.33-1.83,0.6-2.71c0.38-1.25,0.84-2.54,1.38-3.86c0.54-1.32,1.14-2.55,1.81-3.69
		c0.67-1.2,1.3-2.27,1.89-3.23c0.6-0.96,1.13-1.75,1.58-2.38c0.17-0.19,0.39-0.33,0.66-0.41c0.27-0.09,0.5-0.09,0.71-0.01
		c0.21,0.08,0.35,0.22,0.43,0.44c0.08,0.22,0.02,0.53-0.17,0.93h0.03c-0.27,0.59-0.57,1.22-0.93,1.89
		c-0.35,0.67-0.75,1.41-1.18,2.21c-0.42,0.76-0.79,1.53-1.11,2.31c-0.32,0.78-0.62,1.57-0.88,2.37c-0.38,1.23-0.57,2.39-0.57,3.48
		c0,0.19,0,0.36,0.01,0.51c0.01,0.15,0.02,0.3,0.04,0.46c0.13,1.35,0.84,2.53,2.14,3.53c0.57,0.46,1.26,0.81,2.08,1.07
		c0.82,0.26,1.74,0.42,2.76,0.5c0.29,0.02,0.59,0.03,0.91,0.04c0.32,0.01,0.62,0.01,0.88,0.01c1.44,0,2.89-0.13,4.33-0.4h-0.03
		c1.16-0.21,2.27-0.47,3.35-0.8c1.07-0.32,2.12-0.69,3.13-1.1c1.02-0.41,2.02-0.85,3.01-1.34c0.99-0.48,1.98-1,2.99-1.55l-0.11-0.06
		h0.03c-1.04-0.38-2.15-0.71-3.32-0.98c-1.17-0.28-2.38-0.54-3.63-0.78l-2.05-0.46c-0.84-0.25-1.01-0.91-0.51-1.99v0.03
		c0.49-1.25,1.08-2.53,1.77-3.82c0.21-0.4,0.42-0.82,0.64-1.27s0.45-0.89,0.7-1.33c0.08-0.11,0.18-0.21,0.33-0.28
		c0.14-0.08,0.29-0.1,0.44-0.06l5.84,1.4c0.97,0.23,1.94,0.5,2.92,0.83c0.98,0.32,1.84,0.76,2.58,1.31
		c0.49,0.42,0.75,0.92,0.77,1.51c0.04,0.76-0.05,1.4-0.26,1.91c-0.21,0.51-0.43,1-0.66,1.45l-0.34,0.66v-0.03
		c-0.3,0.57-0.57,1.07-0.8,1.51s-0.43,0.79-0.6,1.05c-0.38,0.61-0.73,1.16-1.04,1.65c-0.31,0.49-0.55,0.85-0.7,1.05
		c-1.18,1.77-2.93,3.47-5.24,5.1c-2.26,1.58-4.71,2.86-7.35,3.85c-2.72,1.01-5.37,1.62-7.95,1.85c-0.21,0.02-0.43,0.03-0.67,0.04
		c-0.24,0.01-0.46,0.01-0.67,0.01C121.18,59.01,119.36,58.59,117.84,57.76z"/>
	<path d="M145.88,3.85c0.11,0.13,0.18,0.28,0.2,0.44c0.02,0.16-0.02,0.32-0.11,0.47c-0.78,0.97-1.55,1.93-2.31,2.88
		c-0.76,0.95-1.52,1.9-2.28,2.85c-0.13,0.15-0.29,0.23-0.48,0.24s-0.36-0.05-0.51-0.19l-3.9-3.68c-0.13-0.13-0.21-0.28-0.23-0.44
		c-0.02-0.16,0.03-0.31,0.14-0.44c0.44-0.55,0.87-1.1,1.3-1.64c0.43-0.54,0.86-1.08,1.3-1.61c0.32-0.42,0.65-0.83,0.98-1.23
		s0.66-0.82,0.98-1.25c0.13-0.15,0.3-0.24,0.5-0.26c0.2-0.02,0.38,0.04,0.53,0.17L145.88,3.85z"/>
	<path d="M141.63,32c0.4-0.17,0.8-0.37,1.2-0.6s0.75-0.45,1.05-0.66c-0.04-0.21-0.12-0.52-0.24-0.94c-0.12-0.42-0.26-0.96-0.41-1.62
		l-0.4-1.4c-0.29,0.25-0.62,0.46-1,0.63c-0.38,0.17-0.81,0.33-1.28,0.48c-0.46,0.13-0.9,0.2-1.34,0.2c-0.36,0-0.7-0.04-1.01-0.11
		c-0.31-0.08-0.62-0.19-0.93-0.34c-0.4-0.17-0.69-0.44-0.88-0.81s-0.29-0.81-0.31-1.32v-0.17c0-0.8,0.16-1.5,0.48-2.11l1-2.02h-0.03
		c0.42-0.85,0.85-1.71,1.3-2.58c0.45-0.86,0.97-1.7,1.58-2.49c0.7-0.95,1.49-1.42,2.37-1.42c0.49,0,1.04,0.2,1.65,0.6
		c0.63,0.44,1.18,0.95,1.67,1.54c0.48,0.59,0.92,1.25,1.3,1.99c0.42,0.85,0.75,1.76,1,2.72c0.25,0.96,0.39,1.99,0.43,3.09v0.51
		c0,0.97-0.09,1.91-0.27,2.84c-0.18,0.92-0.44,1.83-0.78,2.72l0.03-0.03c-0.32,0.97-0.78,1.97-1.37,3.01
		c-0.59,1.04-1.17,1.95-1.74,2.75c-0.08,0.1-0.19,0.17-0.34,0.23c-0.15,0.06-0.28,0.07-0.37,0.03l-5.56-1.4
		c-0.21-0.06-0.36-0.18-0.46-0.36c-0.09-0.18-0.09-0.38,0-0.58l0.4-0.94c0.04-0.06,0.1-0.13,0.2-0.23c0.09-0.09,0.17-0.14,0.23-0.14
		c0.4-0.15,0.83-0.31,1.31-0.48C140.57,32.4,141.08,32.21,141.63,32z M143.88,30.92c0-0.02,0.01-0.03,0.03-0.03
		c0-0.02,0-0.03-0.01-0.04c-0.01-0.01-0.01-0.02-0.01-0.04V30.92z"/>
	<path d="M183.52,23.88l4.27-7.12c0.19-0.3,0.44-0.42,0.75-0.34c0.31,0.08,0.49,0.28,0.53,0.63l2.37,35.22l-4.1,6.38
		c-0.09,0.15-0.21,0.25-0.36,0.3c-0.14,0.05-0.28,0.06-0.4,0.03c-0.12-0.03-0.24-0.09-0.34-0.2c-0.1-0.1-0.16-0.24-0.16-0.41
		l-0.6-8.01c-0.67,0.8-1.43,1.56-2.31,2.29c-0.87,0.73-1.83,1.44-2.88,2.12c-1.37,0.87-2.76,1.62-4.17,2.24
		c-1.42,0.62-2.85,1.09-4.32,1.41c-1.52,0.34-2.95,0.51-4.3,0.51c-1.44,0-2.8-0.18-4.07-0.54h0.03c-1.35-0.34-2.5-0.99-3.45-1.94
		c-0.95-0.95-1.7-2.13-2.25-3.53c-0.15-0.46-0.29-1.01-0.43-1.65c-0.13-0.65-0.2-1.22-0.2-1.71c0-0.85,0.11-1.73,0.34-2.64
		c0.23-0.9,0.54-1.81,0.94-2.72c0.67-1.41,1.36-2.78,2.09-4.12c0.73-1.34,1.44-2.55,2.12-3.63v0.03c4.52-7.07,8.26-10.87,11.23-11.4
		c0.23-0.04,0.46-0.07,0.71-0.1c0.25-0.03,0.5-0.04,0.77-0.04c2.36,0,3.85,1.18,4.47,3.53c0.23,0.8,0.34,1.61,0.34,2.45
		c0,1.06-0.16,2.2-0.47,3.42c-0.31,1.22-0.77,2.49-1.38,3.82c-0.91,1.94-2.17,3.61-3.78,5.02c-1.6,1.41-3.58,2.54-5.94,3.39
		c-0.29,0.1-0.53,0.05-0.73-0.14c-0.2-0.19-0.25-0.44-0.16-0.74l2.42-7.38c0.04-0.09,0.11-0.19,0.21-0.27s0.2-0.14,0.3-0.16
		c0.49-0.09,0.92-0.2,1.27-0.31s0.66-0.22,0.93-0.31l1.71-0.8c-0.44-2.15-1.22-3.22-2.34-3.22c-0.42,0-0.81,0.08-1.17,0.23
		c-1.08,0.46-2.08,1.04-2.99,1.75c-0.91,0.71-1.68,1.52-2.31,2.41c-0.63,0.95-1.24,1.9-1.85,2.86c-0.61,0.96-1.17,1.92-1.68,2.89
		c-0.28,0.51-0.43,1.01-0.43,1.48c0,1.14,0.79,2.33,2.37,3.56c1.2,0.93,2.73,1.42,4.62,1.45h0.2c1.9,0,3.86-0.25,5.87-0.74
		c1.04-0.25,2.07-0.54,3.08-0.87c1.01-0.33,2.01-0.71,3.02-1.13c0.91-0.38,1.72-0.73,2.42-1.05c0.7-0.32,1.35-0.65,1.94-0.97
		L183.52,23.88z"/>
	<path d="M200.3,70.69c-0.04,0.08-0.11,0.15-0.21,0.23c-0.1,0.08-0.18,0.12-0.24,0.14l-5.75,1.08l-4.93,0.91
		c-0.3,0.06-0.54-0.02-0.7-0.24c-0.16-0.22-0.17-0.46-0.04-0.73l3.31-6.64c0.04-0.08,0.11-0.15,0.21-0.23
		c0.1-0.08,0.2-0.12,0.3-0.14c1.96-0.34,3.81-0.68,5.57-1.01c1.76-0.33,3.45-0.66,5.09-0.98c0.3-0.06,0.54,0.02,0.71,0.24
		s0.18,0.46,0.03,0.73L200.3,70.69z"/>
	<path d="M199.1,57.62c-0.49,0-0.8-0.22-0.91-0.66c-0.61,0.21-1.3,0.41-2.07,0.6c-0.77,0.19-1.59,0.37-2.46,0.54
		c-1.04,0.19-2.12,0.37-3.23,0.53c-1.11,0.16-2.07,0.28-2.86,0.36c-0.23,0.02-0.42-0.05-0.57-0.21c-0.15-0.16-0.21-0.36-0.17-0.58
		l1.2-7.15c0.02-0.15,0.09-0.28,0.21-0.4c0.12-0.11,0.26-0.18,0.41-0.2c3.42-0.3,6.19-0.65,8.32-1.04c2.13-0.39,3.61-0.8,4.44-1.24
		c0.97-0.59,1.68-1.41,2.14-2.45c0.11-0.21,0.25-0.36,0.4-0.44c0.15-0.09,0.29-0.13,0.43-0.13c0.51,0,0.77,0.33,0.77,1
		c0,0.23-0.01,0.42-0.03,0.57s-0.04,0.26-0.06,0.31v-0.03c-0.21,0.68-0.48,1.44-0.8,2.28c-0.32,0.84-0.69,1.75-1.11,2.74
		c-0.87,2.01-2.04,3.81-3.5,5.39c-0.04,0.04-0.11,0.09-0.23,0.14s-0.2,0.09-0.26,0.09H199.1z"/>
	<path d="M213.26,63.8c0.11,0.13,0.18,0.28,0.2,0.44c0.02,0.16-0.02,0.32-0.11,0.47c-0.78,0.97-1.55,1.93-2.31,2.88
		c-0.76,0.95-1.52,1.9-2.28,2.85c-0.13,0.15-0.29,0.23-0.48,0.24c-0.19,0.01-0.36-0.05-0.51-0.19l-3.9-3.68
		c-0.13-0.13-0.21-0.28-0.23-0.44c-0.02-0.16,0.03-0.31,0.14-0.44c0.44-0.55,0.87-1.1,1.3-1.64s0.86-1.08,1.3-1.61
		c0.32-0.42,0.65-0.83,0.98-1.23c0.33-0.4,0.66-0.82,0.98-1.25c0.13-0.15,0.3-0.24,0.5-0.26c0.2-0.02,0.38,0.04,0.53,0.17
		L213.26,63.8z"/>
	<path d="M216.31,42.57c0.09,0.06,0.19,0.15,0.27,0.27c0.09,0.12,0.13,0.24,0.13,0.36c-0.02,0.89-0.16,1.87-0.43,2.92
		c-0.27,1.05-0.66,2.22-1.17,3.49c-1.03,2.6-2.5,4.45-4.42,5.56h0.03c-2.28,1.31-6.15,2.16-11.62,2.54
		c-0.21,0.02-0.39-0.05-0.56-0.21c-0.16-0.16-0.22-0.35-0.18-0.56l0.85-7.58c0.02-0.15,0.09-0.28,0.23-0.4
		c0.13-0.11,0.28-0.18,0.43-0.2c2.85-0.15,5.23-0.34,7.14-0.57s3.34-0.5,4.29-0.83c0.82-0.32,1.56-0.86,2.24-1.62
		c0.67-0.76,1.23-1.72,1.67-2.88c0.08-0.19,0.2-0.32,0.38-0.38c0.18-0.07,0.37-0.05,0.56,0.04L216.31,42.57z"/>
	<path d="M236.63,15.19c0.59-0.25,1.36-0.55,2.31-0.91c0.95-0.36,1.97-0.74,3.06-1.14c1.09-0.4,2.21-0.81,3.36-1.23
		c1.15-0.42,2.22-0.8,3.21-1.14c0.28-0.09,0.51-0.04,0.68,0.17c0.17,0.21,0.18,0.45,0.03,0.71l-1.77,2.82l-6.35,2.28
		c-1.06,0.38-2.07,0.77-3.01,1.17c-0.94,0.4-1.84,0.81-2.69,1.23c-0.13,0.08-0.27,0.1-0.4,0.06s-0.24-0.1-0.33-0.2
		c-0.08-0.09-0.14-0.21-0.16-0.34s0.01-0.27,0.08-0.4L236.63,15.19z M236.63,19.86c0.59-0.25,1.36-0.55,2.31-0.91
		c0.95-0.36,1.97-0.74,3.06-1.14c1.09-0.4,2.21-0.81,3.36-1.23c1.15-0.42,2.22-0.8,3.21-1.14c0.28-0.09,0.51-0.04,0.68,0.17
		c0.17,0.21,0.18,0.45,0.03,0.71l-1.77,2.82l-6.35,2.28c-1.06,0.38-2.07,0.77-3.01,1.17c-0.94,0.4-1.84,0.81-2.69,1.23
		c-0.13,0.08-0.27,0.09-0.4,0.06c-0.13-0.04-0.24-0.1-0.33-0.2c-0.08-0.1-0.14-0.21-0.16-0.34c-0.02-0.13,0.01-0.27,0.08-0.4
		L236.63,19.86z"/>
	<path d="M244.92,50.18c-0.1,0.15-0.21,0.26-0.36,0.31c-0.14,0.06-0.28,0.07-0.41,0.04c-0.13-0.03-0.25-0.09-0.36-0.2
		c-0.11-0.1-0.17-0.24-0.19-0.41l-1.97-17.1l3.76-6.98c0.08-0.15,0.19-0.26,0.33-0.31c0.14-0.06,0.28-0.07,0.41-0.04
		c0.13,0.03,0.25,0.1,0.36,0.2s0.17,0.24,0.19,0.41c0.13,1.06,0.27,2.11,0.4,3.15c0.13,1.04,0.27,2.07,0.4,3.09
		c0.27,1.79,0.51,3.65,0.73,5.58c0.22,1.94,0.4,3.85,0.56,5.73L244.92,50.18z"/>
	<path d="M263.81,34.85c-0.72,1.14-1.35,2.27-1.88,3.38c-0.53,1.11-0.99,2.22-1.37,3.32c-0.4,1.18-0.93,2.35-1.6,3.52
		c-0.67,1.17-1.47,2.33-2.42,3.49c-1.46,1.77-3.16,3.32-5.09,4.66c-1.93,1.34-3.99,2.45-6.2,3.32c-1.27,0.49-2.64,0.9-4.09,1.21
		s-2.99,0.54-4.6,0.67c-1.6,0.11-3.2,0.21-4.8,0.28c-1.61,0.08-3.22,0.13-4.86,0.17l-1.6,0.09c-0.06,0.02-0.12,0.03-0.2,0.03
		c-0.08,0-0.14,0-0.2,0c-0.82,0-1.23-0.29-1.23-0.88c0-0.13,0.05-0.29,0.16-0.46c0.11-0.17,0.28-0.35,0.53-0.54
		c0.72-0.34,1.5-0.67,2.32-0.98c0.83-0.31,1.66-0.62,2.49-0.93c0.46-0.19,0.93-0.37,1.41-0.54s0.95-0.35,1.38-0.54h-0.03l12.14-5.3
		l-0.03,0.03l1.2-0.6c1.14-0.49,2.27-1,3.41-1.52c1.13-0.52,2.24-1.11,3.32-1.75c1.46-0.82,2.68-1.7,3.65-2.66
		c0.97-0.96,1.72-1.98,2.25-3.06l4.1-8.29c0.25-0.47,0.54-0.96,0.87-1.45c0.33-0.49,0.7-0.96,1.11-1.41
		c0.41-0.45,0.84-0.86,1.31-1.24c0.46-0.38,0.95-0.7,1.47-0.97c0.25-0.09,0.47-0.14,0.68-0.14c0.06,0,0.13,0,0.21,0
		c0.09,0,0.2,0.02,0.36,0.06c0.61,0.13,0.93,0.48,0.97,1.05l0.88,26.41l-3.62,5.41c-0.21,0.3-0.47,0.41-0.78,0.31
		s-0.48-0.31-0.5-0.66L263.81,34.85z"/>
	<path d="M277.37,55.85l-0.63,0.09l0.06-0.03c-0.85,0.21-1.71,0.42-2.58,0.63c-0.86,0.21-1.73,0.41-2.61,0.6h0.03
		c-0.85,0.21-1.7,0.41-2.52,0.6c-0.83,0.19-1.67,0.39-2.52,0.6c-0.27,0.08-0.48,0.03-0.66-0.13s-0.24-0.38-0.2-0.64l1.34-7.35
		c0.04-0.13,0.11-0.26,0.21-0.37c0.1-0.11,0.22-0.18,0.36-0.2l7.98-1.31c0.91-2.17,1.94-4.2,3.09-6.11c1.15-1.91,2.35-3.6,3.6-5.09
		c1.23-1.44,2.38-2.17,3.45-2.17c1.01,0,1.83,0.58,2.48,1.74v-0.03c0.74,1.25,1.11,2.5,1.11,3.73c0,0.82-0.2,1.61-0.6,2.37
		c-0.21,0.4-0.38,0.75-0.51,1.04c-0.13,0.29-0.27,0.58-0.41,0.87c-0.14,0.29-0.29,0.59-0.46,0.93c-0.16,0.33-0.37,0.74-0.61,1.21
		c1.92-0.47,3.6-1.13,5.04-1.97v-1.48c0-2.2-0.18-4.25-0.56-6.14c-0.37-1.89-0.95-3.64-1.72-5.26l0.03,0.03
		c-0.21-0.42-0.58-0.8-1.11-1.14l0.03,0.03c-0.27-0.15-0.5-0.23-0.71-0.23c-0.27,0-0.53,0.07-0.8,0.2c-1.16,0.61-2.07,1.4-2.74,2.36
		h0.03c-0.8,1.14-1.62,2.19-2.48,3.16v-0.03c-0.3,0.34-0.78,0.52-1.42,0.54c-0.78,0-1.17-0.31-1.17-0.94c0-0.04,0-0.1,0.01-0.19
		s0.03-0.17,0.07-0.24c0.3-0.93,0.74-1.79,1.31-2.58c0.57-0.79,1.14-1.55,1.71-2.29l1-1.31c0.46-0.63,0.97-1.25,1.54-1.87
		c0.57-0.62,1.19-1.23,1.85-1.84c0.68-0.61,1.37-1.13,2.05-1.58c0.68-0.45,1.36-0.78,2.02-1.01c0.25-0.09,0.51-0.16,0.78-0.2
		c0.28-0.04,0.55-0.06,0.81-0.06c0.44,0,0.86,0.06,1.28,0.19c0.42,0.12,0.82,0.32,1.2,0.58c1.2,0.82,2.02,2.58,2.48,5.3l0.8,4.99
		c0.09,0.48,0.16,0.96,0.19,1.47c0.03,0.5,0.04,1,0.04,1.5c0,0.32,0,0.65-0.01,0.98c-0.01,0.33-0.03,0.64-0.07,0.93
		c-0.15,1.08-0.48,2.27-0.98,3.55c-0.5,1.28-1.17,2.56-2.01,3.83c-0.82,1.23-1.68,2.37-2.58,3.4c-0.9,1.04-1.77,1.9-2.61,2.58
		c-1.61,1.23-3.44,2.17-5.47,2.81c-2.03,0.64-4.26,0.95-6.7,0.95H277.37z M280.25,47.47c0.61-0.17,1.16-0.38,1.65-0.63
		c0.49-0.25,0.94-0.51,1.34-0.8c-0.38-1.03-0.78-1.54-1.2-1.54h-0.09l-0.09,0.03c-0.38,0.15-0.74,0.41-1.07,0.77
		s-0.63,0.84-0.9,1.42c-0.02,0.04-0.03,0.1-0.03,0.2c0,0.1,0.04,0.19,0.11,0.29L280.25,47.47z"/>
	<path d="M310.28,6.41c-0.15,0.32-0.36,0.6-0.63,0.84c-0.27,0.24-0.58,0.44-0.94,0.61c-0.1,0.06-0.23,0.13-0.4,0.23
		c-0.17,0.1-0.3,0.19-0.4,0.29c0.13,0.1,0.31,0.17,0.54,0.23c0.34,0.1,0.65,0.2,0.93,0.31c0.27,0.11,0.54,0.25,0.78,0.4
		c0.72,0.49,1.08,1.12,1.08,1.88c0,0.21-0.02,0.41-0.07,0.61c-0.05,0.2-0.12,0.4-0.21,0.61c-0.44,1.12-1.24,2.1-2.39,2.93
		c-0.99,0.7-2.01,1.14-3.08,1.31c-0.4,0.06-0.8,0.12-1.2,0.19c-0.4,0.07-0.82,0.14-1.25,0.21l-0.48,0.09
		c-0.19,0.04-0.35,0-0.47-0.11c-0.12-0.11-0.21-0.25-0.26-0.4c-0.05-0.15-0.05-0.31,0-0.47c0.05-0.16,0.16-0.28,0.33-0.36l1.23-0.51
		c0.55-0.27,1.13-0.53,1.74-0.8c0.61-0.27,1.19-0.54,1.74-0.83c-0.08-0.06-0.15-0.1-0.23-0.11c-0.23-0.1-0.44-0.19-0.63-0.28
		c-0.19-0.1-0.38-0.2-0.57-0.31h0.03c-0.93-0.53-1.4-1.25-1.4-2.17c0-0.84,0.45-1.84,1.34-3.02c0.76-0.99,1.45-1.82,2.07-2.49
		c0.62-0.67,1.12-1.17,1.52-1.5c0.19-0.15,0.42-0.3,0.7-0.44c0.28-0.14,0.58-0.29,0.9-0.44c0.15-0.08,0.29-0.09,0.43-0.06
		c0.13,0.04,0.25,0.1,0.34,0.2s0.16,0.21,0.19,0.36s0.01,0.29-0.04,0.44L310.28,6.41z"/>
	<path d="M304.04,26.05l4.27-6.78c0.09-0.15,0.21-0.25,0.36-0.3c0.14-0.05,0.28-0.06,0.41-0.03c0.13,0.03,0.25,0.1,0.34,0.2
		c0.09,0.1,0.15,0.24,0.17,0.41l1.62,24.19l-4.3,6.78c-0.19,0.3-0.44,0.42-0.74,0.34c-0.3-0.08-0.47-0.28-0.51-0.63L304.04,26.05z"
		/>
</g>
<g>
	<g>
		<g id="XMLID_139_">
			
				<linearGradient id="XMLID_00000088848548272168225500000015725746435955356599_" gradientUnits="userSpaceOnUse" x1="46.8471" y1="707.2634" x2="70.8235" y2="719.0524" gradientTransform="matrix(1 0 0 1 0 -690.4884)">
				<stop  offset="0" style="stop-color:#FFFFFF"/>
				<stop  offset="0.4796" style="stop-color:#FFFFFF"/>
				<stop  offset="1" style="stop-color:#FFFFFF"/>
			</linearGradient>
			<path id="XMLID_152_" style="fill:url(#XMLID_00000088848548272168225500000015725746435955356599_);" d="M45.81,20.28
				c0.44-0.08,0.82-0.23,1.18-0.48c0.36-0.25,0.65-0.53,0.9-0.86c0.25-0.34,0.46-0.69,0.59-1.09c0.13-0.4,0.21-0.78,0.21-1.11
				c0-0.76-0.11-1.49-0.32-2.19c-0.21-0.69-0.53-1.32-0.95-1.91c-0.44-0.57-0.97-1.07-1.6-1.49c-0.63-0.42-1.39-0.71-2.25-0.9h-0.4
				c-0.57,0-1.03,0.11-1.41,0.29c-0.38,0.19-0.67,0.44-0.88,0.71c-0.23,0.29-0.4,0.63-0.48,0.99c-0.11,0.38-0.15,0.74-0.15,1.09
				c0,0.4,0.11,0.86,0.32,1.37c0.21,0.5,0.53,0.86,0.97,1.07c0.17,0.08,0.36,0.11,0.61,0.11c0.4,0,0.82-0.06,1.22-0.19
				c0.21-0.08,0.42-0.15,0.61-0.23c-0.13-0.15-0.27-0.36-0.4-0.59c-0.13-0.25-0.25-0.48-0.34-0.71c-0.11-0.25-0.17-0.46-0.25-0.67
				c-0.08-0.21-0.11-0.34-0.11-0.42c0-0.21,0.08-0.36,0.25-0.46c0.17-0.11,0.34-0.15,0.53-0.15c0.32,0,0.69,0.13,1.09,0.38
				c0.4,0.25,0.78,0.59,1.11,1.01c0.34,0.42,0.63,0.88,0.88,1.39c0.25,0.5,0.36,1.01,0.36,1.51c0,0.74-0.25,1.34-0.74,1.81
				c-0.48,0.46-1.09,0.69-1.79,0.69c-0.36,0-0.69-0.04-1.05-0.15c-0.36-0.11-0.67-0.23-0.97-0.38c-0.29-0.15-0.57-0.32-0.84-0.48
				c-0.27-0.17-0.48-0.32-0.67-0.44c-0.46-0.34-0.8-0.61-1.01-0.86c-0.21-0.25-0.38-0.44-0.46-0.59c-0.08-0.15-0.17-0.27-0.21-0.34
				c-0.04-0.08-0.11-0.11-0.19-0.11c-0.17,0-0.25,0.04-0.25,0.11c0,0.04,0.13,0.29,0.38,0.76c0.25,0.46,0.63,0.95,1.13,1.49
				c0.5,0.53,1.11,1.03,1.85,1.47c0.74,0.44,1.58,0.67,2.52,0.67C45.14,20.43,45.48,20.36,45.81,20.28z"/>
			
				<linearGradient id="XMLID_00000054951504411329023410000002203663422643607711_" gradientUnits="userSpaceOnUse" x1="45.3096" y1="709.8956" x2="69.7972" y2="721.9361" gradientTransform="matrix(1 0 0 1 0 -690.4884)">
				<stop  offset="0" style="stop-color:#FFFFFF"/>
				<stop  offset="0.4796" style="stop-color:#FFFFFF"/>
				<stop  offset="1" style="stop-color:#FFFFFF"/>
			</linearGradient>
			<path id="XMLID_148_" style="fill:url(#XMLID_00000054951504411329023410000002203663422643607711_);" d="M69.37,21.52
				c-0.02-0.17-0.08-0.25-0.17-0.25c-0.08-0.02-0.27,0.04-0.55,0.15c-0.29,0.11-0.69,0.21-1.24,0.29c-0.53,0.11-1.22,0.17-2.02,0.19
				c-0.82,0.04-1.81-0.02-2.94-0.19c-1.18-0.17-2.29-0.38-3.32-0.67c-1.03-0.29-2.1-0.5-3.17-0.65c-0.8-0.11-1.66-0.17-2.54-0.19
				s-1.77,0.06-2.63,0.23c-0.86,0.17-1.68,0.44-2.48,0.84c-0.8,0.4-1.49,0.95-2.1,1.66c0,0-0.21,0.27-0.38,0.53
				c-0.55,0.8-0.88,1.62-1.01,2.44c-0.11,0.76-0.06,1.41,0.15,1.98c0.21,0.57,0.5,1.05,0.88,1.43c0.36,0.38,0.78,0.67,1.22,0.88
				c0.44,0.21,0.86,0.34,1.24,0.38c0.76,0.11,1.32,0.11,1.74,0.04c0.4-0.08,0.61-0.17,0.63-0.25c0.02-0.08-0.04-0.15-0.13-0.21
				c-0.04-0.02-0.08-0.04-0.13-0.06c-0.06,0-0.19,0-0.44,0.02c-0.23,0.02-0.55,0-0.92-0.04c-1.01-0.13-1.85-0.53-2.5-1.16
				c-0.65-0.63-0.88-1.51-0.71-2.61c0.13-0.84,0.5-1.62,1.11-2.31l0,0c0,0,0.25-0.29,0.46-0.46l0,0c1.05-0.74,2.12-1.2,3.28-1.39
				c1.13-0.19,2.35-0.21,3.68-0.02c0.71,0.11,1.41,0.23,2.06,0.4c0.55,0.15,1.11,0.32,1.7,0.5h0.02c0,0,0.06,0.02,0.15,0.04
				c0.04,0.02,0.08,0.02,0.11,0.04l0,0c0.36,0.11,0.99,0.32,1.47,0.48c-0.02,0-0.02-0.02-0.02-0.02c0.59,0.21,1.2,0.4,1.83,0.57
				c0.63,0.17,1.24,0.29,1.89,0.38c1.3,0.17,2.37,0.21,3.19,0.13c0.82-0.11,1.34-0.19,1.58-0.29c0.19-0.11,0.34-0.23,0.46-0.36
				c0.13-0.11,0.25-0.27,0.38-0.46c0.13-0.21,0.21-0.44,0.25-0.71c0-0.32-0.02-0.55-0.02-0.74C69.43,21.85,69.41,21.69,69.37,21.52z
				"/>
			
				<linearGradient id="XMLID_00000172435659519273800850000013042764955411268761_" gradientUnits="userSpaceOnUse" x1="54.9299" y1="691.0573" x2="79.2573" y2="703.0189" gradientTransform="matrix(1 0 0 1 0 -690.4884)">
				<stop  offset="0" style="stop-color:#FFFFFF"/>
				<stop  offset="0.4796" style="stop-color:#FFFFFF"/>
				<stop  offset="1" style="stop-color:#FFFFFF"/>
			</linearGradient>
			<path id="XMLID_146_" style="fill:url(#XMLID_00000172435659519273800850000013042764955411268761_);" d="M81.51,10.13
				c-0.23-0.99-0.36-2.04-0.44-3.15c-0.06-0.99-0.04-1.85,0.04-2.56c0-0.06,0.02-0.13,0.02-0.21c0.02-0.21,0.06-0.42,0.11-0.63
				c0.08-0.48,0.17-0.9,0.27-1.24c0.15-0.48,0.29-0.86,0.42-1.13c0.13-0.25,0.19-0.42,0.19-0.5c0-0.06-0.08-0.13-0.25-0.17
				c-0.17-0.04-0.34-0.08-0.55-0.11c-0.21-0.02-0.44-0.06-0.78-0.11c-0.25,0.02-0.5,0.06-0.69,0.15c-0.02,0.08-0.08,0.19-0.15,0.29
				c-0.13,0.25-0.27,0.63-0.42,1.13c-0.13,0.44-0.25,1.01-0.36,1.7c0,0.06-0.02,0.11-0.02,0.17c-0.02,0.19-0.04,0.4-0.06,0.63
				c-0.04,0.63-0.04,1.34,0,2.14c0.06,1.11,0.21,2.16,0.44,3.15c0.17,0.8,0.29,1.6,0.38,2.42l0,0c0.02,0.13,0.06,0.27,0.08,0.4
				c0.13,0.61,0.21,1.26,0.25,1.95c0.08,1.24-0.04,2.37-0.34,3.43s-0.88,2.02-1.77,2.94c0,0,0,0-0.02,0
				c-0.21,0.19-0.55,0.4-0.55,0.4l0,0c-0.63,0.4-1.28,0.67-1.98,0.78c-0.19,0.04-0.38,0.04-0.57,0.06c-0.86,0.04-1.6-0.11-2.16-0.44
				c-0.21-0.13-0.4-0.27-0.57-0.44c-0.63-0.65-0.97-1.47-1.01-2.44c-0.02-0.36-0.02-0.65,0.02-0.86s0.06-0.36,0.06-0.4
				c0-0.02-0.02-0.06-0.04-0.11c-0.06-0.11-0.13-0.15-0.21-0.15c-0.11,0-0.21,0.19-0.34,0.57c-0.11,0.38-0.15,0.92-0.11,1.62
				c0.02,0.36,0.13,0.76,0.29,1.2c0.13,0.32,0.32,0.63,0.55,0.9c0.08,0.11,0.17,0.21,0.27,0.29c0.32,0.32,0.71,0.59,1.18,0.82
				c0.08,0.04,0.17,0.08,0.27,0.13c0.59,0.25,1.28,0.36,2.1,0.32c0.88-0.04,1.77-0.29,2.67-0.74c0.29-0.15,0.61-0.32,0.61-0.32
				c0.82-0.5,1.47-1.11,1.95-1.81c0.48-0.71,0.86-1.47,1.11-2.25c0.25-0.8,0.4-1.6,0.46-2.44c0.06-0.82,0.06-1.62,0.02-2.37
				C81.87,12.12,81.72,11.12,81.51,10.13z"/>
			
				<linearGradient id="XMLID_00000082343245844048211160000014125029553421929148_" gradientUnits="userSpaceOnUse" x1="53.4035" y1="694.8644" x2="77.4956" y2="706.7103" gradientTransform="matrix(1 0 0 1 0 -690.4884)">
				<stop  offset="0" style="stop-color:#FFFFFF"/>
				<stop  offset="0.4796" style="stop-color:#FFFFFF"/>
				<stop  offset="1" style="stop-color:#FFFFFF"/>
			</linearGradient>
			<path id="XMLID_141_" style="fill:url(#XMLID_00000082343245844048211160000014125029553421929148_);" d="M71.6,15.57
				c0.08,0.27,0.19,0.57,0.34,0.84c0.32,0.63,0.9,1.13,1.74,1.47c0.17,0.06,0.4,0.13,0.67,0.15c0.11,0.02,0.23,0.02,0.36,0.02
				c0.02,0,0.06,0,0.11,0c0.23,0,0.44-0.04,0.63-0.15l0.08-0.04c0.38-0.27,0.74-0.69,1.05-1.28c0.29-0.53,0.48-1.07,0.59-1.45
				c0.02-0.04,0.02-0.08,0.02-0.11c0.02-0.06,0.04-0.11,0.04-0.17v-0.02c0.02-0.04,0.02-0.11,0.04-0.15l0.02-0.13
				c0.02-0.08,0.02-0.17,0.04-0.25c0.11-0.78,0.19-1.62,0.23-2.52c0.04-0.88,0.04-1.85,0.02-2.84c-0.02-0.84-0.02-1.68-0.06-2.77
				c-0.02-0.65-0.04-1.24-0.06-1.77c0-0.19-0.02-0.38-0.02-0.57c0-0.08,0-0.15-0.02-0.21c-0.02-0.55-0.04-0.97-0.06-1.24
				c0.02-0.17,0.02-0.32,0.04-0.44l0.02-0.11l-0.13,0c-0.15,0-0.29,0.02-0.44,0.04c-0.32,0.04-0.63,0.13-0.95,0.27
				c-0.32,0.15-0.55,0.36-0.67,0.65c-0.06,0.13-0.11,0.25-0.13,0.4c-0.02,0.13-0.04,0.25-0.06,0.44c0,0.04,0,0.08,0,0.13
				c0.02,0.15,0.02,0.36,0.04,0.61c0,0.15,0.02,0.29,0.02,0.48l0.02,0.25c0.02,0.61,0.06,1.3,0.11,2.1
				c0.04,0.84,0.06,1.68,0.08,2.52c0.02,0.88,0.02,1.74,0,2.56c-0.02,0.82-0.08,1.6-0.17,2.29c-0.08,0.57-0.19,1.03-0.32,1.39
				c-0.02,0.08-0.06,0.15-0.08,0.23c-0.08,0.21-0.21,0.36-0.34,0.42c-0.02,0-0.02,0.02-0.04,0.02c-0.13,0.04-0.27,0.04-0.44-0.02
				c-0.02,0-0.04-0.02-0.06-0.02c-0.38-0.17-0.78-0.61-1.16-1.28c-0.06-0.13-0.13-0.25-0.19-0.4c0.08-0.06,0.17-0.15,0.23-0.21
				c0.32-0.32,0.59-0.65,0.78-1.01c0.11-0.17,0.19-0.34,0.25-0.53c0.23-0.59,0.23-1.18-0.02-1.79c-0.34-0.8-0.88-1.39-1.64-1.79
				c-0.76-0.38-1.58-0.63-2.48-0.71s-1.85-0.06-2.82,0.08c-0.08,0.02-0.19,0.02-0.27,0.04c-0.86,0.15-1.66,0.34-2.4,0.61
				c-0.57,0.21-1.13,0.46-1.72,0.78c-0.59,0.32-1.13,0.71-1.62,1.16c-0.08,0.08-0.17,0.17-0.23,0.23c-0.38,0.4-0.69,0.84-0.97,1.32
				c-0.27,0.5-0.42,1.05-0.46,1.66v0.02c0,0.02,0,0.02,0,0.02V15c0,0.17,0,0.42,0.02,0.69c0,0.02-0.02,0.02-0.02,0.04
				c-0.42,0.55-0.82,0.88-1.2,0.99c-0.02,0-0.04,0.02-0.06,0.02c-0.25,0.06-0.44,0.02-0.55-0.11c-0.11-0.13-0.21-0.32-0.27-0.55
				c-0.19-0.69-0.19-1.47-0.02-2.33c0.19-0.88,0.38-1.7,0.57-2.48h0.04c0.15-0.38,0.17-0.69,0.11-0.92
				c-0.08-0.32-0.25-0.57-0.5-0.71c-0.25-0.17-0.48-0.27-0.74-0.36c-0.25-0.08-0.46-0.13-0.65-0.15C55.71,9.12,55.6,9.1,55.6,9.04
				c0.02,0.23-0.02,0.59-0.11,1.09c-0.11,0.5-0.19,1.07-0.27,1.72c-0.08,0.65-0.15,1.32-0.17,2.04c0,0.21,0,0.44,0.02,0.65
				c-0.11,0.42-0.25,0.78-0.44,1.09c-0.44,0.71-0.86,1.18-1.28,1.32c-0.02,0-0.04,0.02-0.06,0.02c-0.4,0.13-0.69-0.04-0.88-0.48
				c-0.17-0.4-0.29-0.95-0.38-1.64c-0.08-0.69-0.13-1.47-0.15-2.29c0-0.84,0.02-1.68,0.06-2.56c0.04-0.88,0.08-1.72,0.15-2.52
				c0.04-0.8,0.11-3.24,0.15-3.85c0.04-0.61,0.08-1.05,0.11-1.32c0-0.21-0.02-0.4-0.06-0.53c-0.02-0.15-0.06-0.27-0.13-0.38
				c-0.13-0.27-0.34-0.48-0.63-0.63c-0.29-0.13-0.59-0.23-0.9-0.27c-0.32-0.04-0.61-0.06-0.86-0.06c-0.25,0-0.42,0-0.48,0
				c0.08,0.36,0.17,0.78,0.21,1.28l0.06,0.84c0,0.34-0.02,0.95-0.02,1.87c-0.02,0.9,0,3.66,0.02,4.77c0.04,1.11,0.11,2.29,0.23,3.47
				c0.08,0.88,0.21,1.7,0.4,2.44l0,0c0.02,0.11,0.06,0.19,0.08,0.29c0.17,0.57,0.53,1.62,1.16,2.33c0.08-0.02,0.17-0.04,0.27-0.04
				c0.46-0.04,0.9,0.15,1.2,0.46c0.25-0.34,0.63-0.57,1.09-0.61c0.04,0,0.11,0,0.15,0c0.15,0,0.32,0.02,0.44,0.06
				c0.02-0.02,0.06-0.04,0.08-0.06c0.27-0.23,0.48-0.48,0.65-0.78c0.06-0.13,0.13-0.27,0.19-0.4c0.21,0.53,0.48,0.92,0.86,1.18
				c0.27,0.21,0.57,0.32,0.84,0.36c0.27,0.02,0.53,0,0.76-0.04c0.02,0,0.02,0,0.04-0.02c0.63-0.17,1.11-0.44,1.45-0.86
				c0.02,0.04,0.02,0.06,0.04,0.11v0.02l0,0c0.4,0.97,0.97,1.72,1.72,2.27c0.44,0.34,0.9,0.61,1.34,0.84
				c0.29,0.15,0.57,0.27,0.86,0.38c0.74,0.27,1.39,0.44,1.95,0.5c0.44,0.04,0.69,0.06,0.84,0.06c0.13,0,0.17-0.02,0.21-0.02
				c0.06-0.02,0.11-0.06,0.19-0.13c0.06-0.04,0.19-0.19,0.08-0.44c-0.06-0.15-0.19-0.23-0.38-0.25c-0.04,0-0.17-0.02-0.44-0.08
				c-0.21-0.04-0.5-0.13-0.86-0.25c-0.32-0.11-0.74-0.27-1.2-0.48c-0.06-0.02-0.13-0.04-0.19-0.08c-0.46-0.23-0.95-0.55-1.43-0.97
				c-0.08-0.06-0.17-0.15-0.23-0.23l-0.02-0.02c-0.06-0.06-0.13-0.15-0.19-0.21c-0.02-0.02-0.04-0.04-0.06-0.06
				c-0.02-0.02-0.04-0.04-0.06-0.06c-0.13-0.15-0.21-0.29-0.23-0.34l0,0c0.8,0.11,2.42,0.06,2.42,0.06c0.36,0,0.71,0,1.09,0
				c0.76-0.02,1.53-0.11,2.33-0.23c0.8-0.13,1.55-0.34,2.29-0.59c0.55-0.19,1.11-0.46,1.7-0.8C71.32,15.74,71.47,15.66,71.6,15.57z
				 M70.96,12.67L70.96,12.67c-0.15,0.27-0.4,0.55-0.74,0.8c-0.06,0.06-0.15,0.11-0.21,0.17c-0.29,0.21-0.65,0.44-1.07,0.65
				c-0.5,0.27-1.07,0.5-1.66,0.69c-0.5,0.15-1.05,0.29-1.66,0.38c-0.59,0.11-1.2,0.17-1.79,0.23c-0.02,0-0.04,0-0.06,0
				c-0.57,0.04-1.13,0.06-1.66,0.04c-0.48-0.02-0.92-0.04-1.3-0.06c-0.02-0.23-0.02-0.46,0.02-0.67c0.04-0.29,0.15-0.61,0.32-0.88
				c0.29-0.53,0.71-0.99,1.22-1.34c0.13-0.08,0.25-0.17,0.38-0.25c0.4-0.25,0.84-0.46,1.28-0.63c0.61-0.21,1.3-0.38,2.06-0.5
				c0.15-0.02,0.29-0.04,0.44-0.06c0.61-0.06,1.2-0.08,1.79-0.06c0.71,0.04,1.32,0.13,1.85,0.29c0.46,0.15,0.76,0.36,0.88,0.63
				C71.13,12.23,71.09,12.44,70.96,12.67z"/>
		</g>
		<path id="XMLID_137_" class="st5" d="M74.31,3.47L74.31,3.47V3.45c0-0.02,0-0.04,0-0.06s0-0.04,0-0.04l-5.42,0.04l-3.74,0.06
			L61.4,3.51l-3.72,0.08L53.94,3.7l3.74,0.11l3.74,0.08l3.74,0.06l3.74,0.06l5.46,0.06C74.33,3.8,74.33,3.61,74.31,3.47z"/>
		<path id="XMLID_136_" class="st5" d="M84.85,5.36c0-0.57,0-1.11-0.02-1.68l-0.02-0.44h-0.44l-2.86,0.02c0,0.02,0,0.02,0,0.04
			c-0.04,0.21-0.06,0.4-0.11,0.61c0,0.06-0.02,0.11-0.02,0.17l2.5,0.02c0,0.42,0,0.82-0.02,1.24c0,0.55-0.02,1.11,0,1.68l0.02,1.68
			c0,0.27,0.02,0.57,0.02,0.84l0.02,0.84c0.02,0.57,0.04,1.11,0.06,1.68c0.02,0.57,0.04,1.11,0.08,1.68
			c0.02,0.27,0.02,0.57,0.06,0.84l0.06,0.84c0.04,0.57,0.11,1.11,0.17,1.68c0.06-0.57,0.13-1.11,0.17-1.68l0.06-0.84
			c0.02-0.27,0.04-0.57,0.06-0.84c0.04-0.57,0.06-1.11,0.08-1.68c0.02-0.57,0.04-1.11,0.06-1.68l0.02-0.84
			c0-0.27,0.02-0.57,0.02-0.84l0.02-1.68C84.85,6.49,84.85,5.93,84.85,5.36z"/>
		<ellipse id="XMLID_135_" class="st5" cx="51.63" cy="18.53" rx="0.9" ry="0.84"/>
		<ellipse id="XMLID_134_" class="st5" cx="53.94" cy="18.53" rx="1.09" ry="1.01"/>
		<path id="XMLID_128_" class="st5" d="M46.88,3.68c0,0-0.29,0.04-0.84,0.08c-0.27,0.02-0.59,0.06-0.95,0.08
			c-0.36,0.02-0.78,0.06-1.22,0.08c-0.23,0.02-0.46,0.04-0.69,0.08c-0.23,0.06-0.44,0.08-0.69,0.15c-0.23,0.06-0.48,0.13-0.71,0.23
			c-0.13,0.04-0.23,0.11-0.36,0.15c-0.11,0.06-0.23,0.11-0.36,0.17c-0.23,0.11-0.46,0.25-0.69,0.4c-0.11,0.06-0.21,0.17-0.32,0.23
			c-0.11,0.08-0.23,0.15-0.32,0.25l-0.29,0.27c-0.11,0.08-0.19,0.19-0.27,0.29c-0.19,0.19-0.34,0.42-0.53,0.61
			C38.56,6.87,38.5,7,38.41,7.1c-0.08,0.11-0.15,0.23-0.21,0.34L38.02,7.8c-0.04,0.13-0.11,0.25-0.15,0.36
			c-0.04,0.13-0.11,0.25-0.13,0.36c-0.04,0.13-0.08,0.25-0.13,0.38s-0.04,0.25-0.08,0.38c-0.02,0.13-0.06,0.25-0.06,0.38
			c-0.04,0.48-0.06,1.01-0.11,1.49c-0.02,0.48-0.06,0.95-0.08,1.37c-0.06,0.84-0.13,1.55-0.19,2.06c-0.06,0.48-0.11,0.78-0.11,0.78
			s-0.04-0.27-0.11-0.78s-0.13-1.2-0.19-2.06c-0.04-0.42-0.06-0.88-0.08-1.37c-0.02-0.48-0.06-0.99-0.04-1.55
			c0-0.15,0.02-0.27,0.04-0.42c0.02-0.15,0.04-0.29,0.06-0.42c0.06-0.27,0.13-0.59,0.25-0.86c0.04-0.15,0.11-0.27,0.17-0.42
			l0.21-0.4c0.06-0.15,0.15-0.27,0.23-0.4s0.17-0.25,0.25-0.38c0.19-0.23,0.38-0.5,0.61-0.71c0.11-0.11,0.21-0.23,0.34-0.32
			c0.13-0.11,0.23-0.19,0.36-0.29c0.13-0.11,0.25-0.19,0.38-0.27s0.25-0.17,0.38-0.25c0.27-0.15,0.53-0.29,0.82-0.4
			c0.13-0.06,0.27-0.11,0.4-0.17c0.15-0.04,0.27-0.08,0.42-0.13c0.27-0.08,0.55-0.13,0.82-0.19c0.13-0.02,0.27-0.04,0.4-0.06
			c0.13-0.02,0.27-0.02,0.4-0.04c0.25-0.02,0.48,0,0.71,0c0.48,0.02,0.88,0.06,1.26,0.08c0.38,0.02,0.69,0.06,0.95,0.08
			C46.59,3.66,46.88,3.68,46.88,3.68z"/>
		<path id="XMLID_127_" class="st5" d="M47.6,26.39c0,0,0.17,0,0.46-0.02s0.74-0.04,1.3-0.06c1.13-0.04,2.73-0.11,4.66-0.15
			c0.97-0.02,2.02-0.04,3.11-0.06c1.11-0.02,2.27-0.04,3.49-0.04c1.22,0,2.46-0.02,3.72-0.02s2.56,0,3.85,0.02s2.58,0.02,3.85,0.04
			c1.26,0,2.52,0.04,3.72,0.06c0.59,0.02,1.18,0.02,1.77,0.04c0.29,0,0.59,0,0.84-0.04c0.13-0.02,0.25-0.02,0.38-0.04
			c0.13-0.02,0.25-0.06,0.38-0.08c1.03-0.23,1.93-0.67,2.65-1.22c0.71-0.55,1.26-1.18,1.64-1.81c0.4-0.61,0.59-1.22,0.74-1.72
			c0.13-0.5,0.17-0.92,0.19-1.2c0.02-0.27,0.02-0.44,0.02-0.44s0,0.15,0.02,0.44c0,0.27,0.02,0.69-0.06,1.24
			c-0.08,0.53-0.23,1.18-0.59,1.85c-0.34,0.67-0.86,1.41-1.62,2.04c-0.17,0.17-0.4,0.29-0.59,0.46c-0.21,0.15-0.44,0.27-0.67,0.42
			c-0.23,0.13-0.48,0.25-0.76,0.34c-0.27,0.08-0.53,0.21-0.82,0.27c-0.15,0.04-0.29,0.06-0.42,0.11c-0.15,0.02-0.29,0.04-0.44,0.06
			c-0.32,0.06-0.59,0.06-0.88,0.08h-0.11h-0.08h-0.06h-0.23c-0.15,0-0.29,0-0.44,0c-0.29,0-0.59,0-0.9,0
			c-1.22,0-2.46,0.02-3.72,0.02c-1.26,0-2.56,0-3.85-0.02s-2.58-0.02-3.85-0.04c-1.26-0.02-2.52-0.04-3.72-0.06
			c-1.22-0.02-2.37-0.06-3.49-0.08c-1.11-0.02-2.14-0.06-3.11-0.11c-1.93-0.06-3.55-0.15-4.66-0.21c-0.57-0.02-1.01-0.06-1.3-0.08
			C47.74,26.39,47.6,26.39,47.6,26.39z"/>
		<path id="XMLID_126_" class="st5" d="M43.16,26.69c-0.48,0.06-0.97,0.13-1.45,0.17c-0.23,0.02-0.48,0.04-0.74,0.06l-0.74,0.06
			c-0.48,0.04-0.97,0.06-1.45,0.08c-0.48,0.02-0.97,0.04-1.45,0.04l-0.42,0.02l-0.02-0.44c-0.04-1.47-0.04-2.96,0.02-4.43
			c0.04-0.74,0.08-1.47,0.15-2.21c0.02-0.19,0.02-0.38,0.06-0.55l0.06-0.57c0.04-0.38,0.11-0.74,0.17-1.11
			c0.06,0.38,0.13,0.74,0.17,1.11l0.06,0.55c0.02,0.19,0.04,0.38,0.06,0.55c0.08,0.74,0.13,1.47,0.15,2.21
			c0.06,1.47,0.06,2.96,0.02,4.43l-0.46-0.44c0.48,0.02,0.97,0.02,1.45,0.04s0.97,0.04,1.45,0.08L41,26.41
			c0.23,0.02,0.48,0.04,0.74,0.06C42.2,26.56,42.7,26.62,43.16,26.69z"/>
		<path id="XMLID_119_" class="st5" d="M55.6,12.19c0-0.02-0.02-0.02-0.02-0.02s0,0,0-0.02L55.6,12.19z"/>
		<g id="XMLID_82_">
			<g id="XMLID_116_">
				<path id="XMLID_117_" class="st5" d="M45.64,19.96c0.44-0.08,0.82-0.23,1.18-0.48s0.65-0.53,0.9-0.86
					c0.25-0.34,0.46-0.69,0.59-1.09c0.13-0.4,0.21-0.78,0.21-1.11c0-0.76-0.11-1.49-0.32-2.19c-0.21-0.69-0.53-1.32-0.95-1.91
					c-0.44-0.57-0.97-1.07-1.6-1.49c-0.63-0.42-1.39-0.71-2.25-0.9h-0.4c-0.57,0-1.03,0.11-1.41,0.29
					c-0.38,0.19-0.67,0.44-0.88,0.71c-0.23,0.29-0.4,0.63-0.48,0.99c-0.11,0.38-0.15,0.74-0.15,1.09c0,0.4,0.11,0.86,0.32,1.37
					c0.21,0.5,0.53,0.86,0.97,1.07c0.17,0.08,0.36,0.11,0.61,0.11c0.4,0,0.82-0.06,1.22-0.19c0.21-0.08,0.42-0.15,0.61-0.23
					c-0.13-0.15-0.27-0.36-0.4-0.59c-0.13-0.25-0.25-0.48-0.34-0.71c-0.11-0.25-0.17-0.46-0.25-0.67c-0.06-0.21-0.11-0.34-0.11-0.42
					c0-0.21,0.08-0.36,0.25-0.46c0.17-0.11,0.34-0.15,0.53-0.15c0.32,0,0.69,0.13,1.09,0.38s0.78,0.59,1.11,1.01
					c0.34,0.42,0.63,0.88,0.88,1.39c0.25,0.5,0.36,1.01,0.36,1.51c0,0.74-0.25,1.34-0.74,1.81c-0.48,0.46-1.09,0.69-1.79,0.69
					c-0.36,0-0.69-0.04-1.05-0.15c-0.36-0.11-0.67-0.23-0.97-0.38c-0.29-0.15-0.57-0.32-0.84-0.48c-0.25-0.17-0.48-0.32-0.67-0.44
					c-0.46-0.34-0.8-0.61-1.01-0.86s-0.38-0.44-0.46-0.59c-0.08-0.15-0.17-0.27-0.21-0.34c-0.04-0.08-0.11-0.11-0.19-0.11
					c-0.17,0-0.25,0.04-0.25,0.11c0,0.04,0.13,0.29,0.38,0.76c0.25,0.46,0.63,0.95,1.13,1.49c0.5,0.53,1.11,1.03,1.85,1.47
					c0.74,0.44,1.58,0.67,2.52,0.67C44.97,20.11,45.31,20.07,45.64,19.96z"/>
			</g>
			<path id="XMLID_115_" class="st5" d="M77.44,8.64c-0.02-0.84-0.02-1.68-0.06-2.77c-0.02-0.65-0.04-1.24-0.06-1.77
				c0-0.19-0.02-0.38-0.02-0.57c0-0.08,0-0.15-0.02-0.23c-0.02-0.57-0.04-0.97-0.06-1.24c0.02-0.17,0.02-0.32,0.04-0.44l0.02-0.11
				h-0.13c-0.15,0-0.29,0.02-0.44,0.04c-0.32,0.04-0.63,0.13-0.95,0.27s-0.55,0.36-0.67,0.67c-0.06,0.13-0.11,0.25-0.13,0.4
				c-0.02,0.13-0.04,0.25-0.06,0.44c0,0.04,0,0.08,0,0.13c0.02,0.15,0.02,0.36,0.04,0.61c0,0.15,0.02,0.29,0.02,0.48l0.02,0.25
				c0.02,0.61,0.06,1.3,0.11,2.1c0.04,0.84,0.06,1.68,0.08,2.52c0.02,0.88,0.02,1.74,0,2.56c-0.02,0.82-0.08,1.6-0.17,2.29
				c-0.08,0.57-0.19,1.03-0.32,1.39c-0.02,0.08-0.06,0.15-0.08,0.23c-0.08,0.21-0.21,0.36-0.34,0.42c-0.02,0-0.02,0.02-0.04,0.02
				c-0.13,0.04-0.27,0.04-0.44-0.02c-0.02,0-0.04-0.02-0.06-0.02c-0.38-0.17-0.78-0.61-1.16-1.28c-0.17-0.27-0.29-0.61-0.4-0.99
				c-0.15-0.57-0.23-1.22-0.23-1.98V12l-0.06-0.02l-0.06-0.04l-0.04-0.02c-0.17-0.06-0.29-0.06-0.36-0.02l-0.04-0.02l-0.04,0.11l0,0
				V12h0.02v0.02c0,0.02,0,0.11-0.11,0.67c-0.08,0.46-0.11,1.01-0.04,1.64c0.02,0.17,0.04,0.36,0.08,0.53
				c0.08,0.46,0.25,0.9,0.48,1.37c0.32,0.63,0.9,1.13,1.74,1.47c0.17,0.06,0.4,0.13,0.67,0.15c0.11,0.02,0.23,0.02,0.36,0.02
				c0.02,0,0.06,0,0.11,0c0.23,0,0.44-0.04,0.63-0.15l0.08-0.04c0.38-0.27,0.74-0.69,1.05-1.28c0.29-0.53,0.48-1.07,0.59-1.45
				c0.02-0.04,0.02-0.08,0.02-0.11c0.02-0.06,0.04-0.11,0.04-0.17v-0.02c0.02-0.04,0.02-0.11,0.04-0.15l0.02-0.13
				c0.02-0.08,0.02-0.17,0.04-0.25c0.11-0.78,0.19-1.62,0.23-2.52C77.46,10.57,77.46,9.62,77.44,8.64z"/>
			<g id="XMLID_112_">
				<path id="XMLID_114_" class="st5" d="M55.6,12.19c0-0.02-0.02-0.02-0.02-0.02s0,0,0-0.02L55.6,12.19z"/>
				<path id="XMLID_113_" class="st5" d="M55.69,14.48c-0.06,0.61-0.27,1.22-0.59,1.85c-0.15,0.29-0.38,0.57-0.65,0.78
					c-0.02,0.02-0.04,0.04-0.08,0.06c-0.15-0.04-0.29-0.06-0.44-0.06c-0.04,0-0.11,0-0.15,0c-0.46,0.04-0.84,0.27-1.09,0.61
					c-0.27-0.32-0.71-0.5-1.2-0.46c-0.08,0-0.19,0.02-0.27,0.04c-0.63-0.71-0.99-1.77-1.16-2.33c-0.02-0.08-0.06-0.19-0.08-0.29l0,0
					c-0.17-0.74-0.32-1.53-0.4-2.44c-0.13-1.18-0.19-2.35-0.23-3.47S49.3,4.9,49.32,3.99c0.02-0.9,0.02-1.53,0.02-1.87l-0.06-0.84
					c-0.04-0.5-0.11-0.92-0.21-1.28c0.06,0,0.21,0,0.48,0c0.25,0,0.55,0.02,0.86,0.06s0.61,0.13,0.9,0.27
					c0.29,0.13,0.5,0.34,0.63,0.63c0.04,0.13,0.08,0.25,0.13,0.38s0.08,0.34,0.11,0.57c-0.02,0.29-0.06,0.74-0.11,1.32
					c-0.04,0.61-0.08,3.03-0.15,3.85c-0.06,0.82-0.11,1.64-0.15,2.52c-0.04,0.88-0.06,1.72-0.06,2.56c0.02,0.84,0.06,1.6,0.15,2.29
					c0.08,0.69,0.21,1.24,0.38,1.64c0.19,0.44,0.48,0.61,0.88,0.48c0.02,0,0.04-0.02,0.06-0.02c0.42-0.17,0.86-0.61,1.28-1.32
					c0.44-0.71,0.67-1.72,0.69-3l0.04-0.02l0.06-0.06c0.15-0.06,0.25-0.04,0.29,0.02c-0.02,0.04,0.02,0.27,0.08,0.69
					C55.75,13.32,55.77,13.87,55.69,14.48z"/>
			</g>
			<path id="XMLID_101_" class="st5" d="M69.28,21.73c-0.02-0.19-0.04-0.36-0.06-0.5c-0.02-0.17-0.08-0.25-0.17-0.25
				c-0.08-0.02-0.27,0.04-0.55,0.15c-0.29,0.11-0.69,0.21-1.24,0.29c-0.53,0.11-1.22,0.17-2.02,0.19c-0.82,0.04-1.81-0.02-2.94-0.19
				c-1.18-0.17-2.29-0.38-3.32-0.67c-1.03-0.29-2.1-0.5-3.17-0.65c-0.8-0.11-1.66-0.17-2.54-0.19s-1.77,0.06-2.63,0.23
				c-0.86,0.17-1.68,0.44-2.48,0.84c-0.8,0.4-1.49,0.95-2.1,1.66c0,0-0.21,0.27-0.38,0.53c-0.55,0.8-0.88,1.62-1.01,2.44
				c-0.11,0.76-0.06,1.41,0.15,1.98c0.21,0.57,0.5,1.05,0.88,1.43c0.36,0.38,0.78,0.67,1.22,0.88c0.44,0.21,0.86,0.34,1.24,0.38
				c0.76,0.11,1.32,0.11,1.74,0.04c0.4-0.08,0.61-0.17,0.63-0.25c0.02-0.08-0.04-0.15-0.13-0.21c-0.04-0.02-0.08-0.04-0.13-0.06
				c-0.06,0-0.21,0-0.44,0.02s-0.55,0-0.92-0.04c-1.01-0.13-1.85-0.53-2.5-1.16c-0.65-0.63-0.88-1.51-0.71-2.61
				c0.13-0.84,0.5-1.62,1.11-2.31l0,0c0,0,0.25-0.29,0.46-0.46l0,0c1.05-0.74,2.12-1.2,3.28-1.39c1.13-0.19,2.35-0.21,3.68-0.02
				c0.71,0.11,1.41,0.23,2.06,0.4c0.55,0.15,1.11,0.32,1.7,0.5h0.02c0,0,0.06,0.02,0.15,0.04c0.04,0.02,0.08,0.02,0.11,0.04l0,0
				c0.36,0.11,0.99,0.32,1.47,0.48c-0.02,0-0.02-0.02-0.02-0.02c0.59,0.21,1.2,0.4,1.83,0.57c0.63,0.17,1.24,0.29,1.89,0.38
				c1.3,0.17,2.37,0.21,3.19,0.13c0.82-0.11,1.34-0.19,1.58-0.29c0.19-0.11,0.34-0.23,0.46-0.36c0.13-0.11,0.25-0.27,0.38-0.46
				c0.13-0.21,0.21-0.44,0.25-0.71C69.3,22.15,69.28,21.92,69.28,21.73z"/>
			<path id="XMLID_100_" class="st5" d="M81.77,12.84c0.04,0.76,0.04,1.55-0.02,2.37s-0.21,1.64-0.46,2.44
				c-0.25,0.8-0.63,1.53-1.11,2.25c-0.48,0.71-1.13,1.32-1.95,1.81c0,0-0.32,0.17-0.59,0.32c-0.9,0.44-1.81,0.69-2.67,0.74
				c-0.82,0.04-1.51-0.06-2.1-0.32c-0.08-0.04-0.19-0.08-0.27-0.13c-0.46-0.23-0.86-0.5-1.18-0.82c-0.11-0.11-0.19-0.19-0.27-0.29
				c-0.23-0.29-0.42-0.59-0.55-0.9c-0.17-0.44-0.27-0.84-0.29-1.2c-0.04-0.71,0-1.24,0.11-1.62s0.23-0.57,0.34-0.57
				c0.08,0,0.15,0.04,0.21,0.15c0.02,0.04,0.04,0.08,0.04,0.11c0,0.04-0.02,0.19-0.06,0.4c-0.04,0.21-0.04,0.5-0.02,0.86
				c0.06,0.97,0.4,1.77,1.01,2.44c0.17,0.17,0.36,0.34,0.57,0.44c0.57,0.34,1.28,0.48,2.16,0.44c0.19,0,0.38-0.02,0.57-0.06
				c0.69-0.11,1.37-0.38,1.98-0.78l0,0c0,0,0.34-0.19,0.55-0.4c0,0,0,0,0.02,0c0.86-0.9,1.45-1.89,1.77-2.94
				c0.29-1.05,0.42-2.19,0.34-3.43c-0.04-0.69-0.13-1.32-0.25-1.95c-0.02-0.13-0.06-0.25-0.08-0.4l0,0
				c-0.06-0.82-0.19-1.62-0.38-2.42c-0.23-0.99-0.38-2.04-0.44-3.15c-0.04-0.8-0.04-1.51,0-2.14c0.02-0.21,0.04-0.42,0.06-0.63
				c0-0.06,0.02-0.13,0.02-0.17c0.11-0.67,0.21-1.24,0.36-1.7c0.15-0.48,0.29-0.86,0.42-1.13c0.06-0.13,0.11-0.21,0.15-0.29
				C79.92,0.06,80.15,0.02,80.4,0c0.34,0.04,0.59,0.06,0.78,0.08s0.38,0.06,0.55,0.11c0.17,0.04,0.25,0.11,0.25,0.17
				c0,0.08-0.06,0.25-0.19,0.5S81.51,1.49,81.37,2c-0.11,0.36-0.19,0.76-0.27,1.24c-0.04,0.19-0.06,0.4-0.11,0.63
				c-0.02,0.06-0.02,0.13-0.02,0.21c-0.08,0.71-0.11,1.58-0.04,2.56c0.06,1.11,0.21,2.16,0.44,3.15
				C81.58,10.82,81.7,11.83,81.77,12.84z"/>
			<path id="XMLID_97_" class="st5" d="M60.35,12.86l-0.08-0.04c-0.08-0.04-0.17-0.06-0.27-0.04l-0.06,0.04
				c-0.08,0.48-0.19,0.95-0.32,1.32c-0.17,0.48-0.38,0.88-0.63,1.2c-0.42,0.55-0.82,0.88-1.2,0.99c-0.02,0-0.04,0.02-0.06,0.02
				c-0.25,0.06-0.44,0.02-0.55-0.11c-0.11-0.13-0.21-0.32-0.27-0.55c-0.19-0.69-0.19-1.47-0.02-2.33c0.19-0.88,0.38-1.7,0.57-2.48
				h0.04c0.15-0.38,0.17-0.69,0.11-0.92c-0.08-0.32-0.25-0.57-0.5-0.71c-0.25-0.17-0.48-0.27-0.74-0.36
				c-0.25-0.08-0.46-0.13-0.65-0.15c-0.17-0.02-0.27-0.04-0.27-0.11c0.02,0.23-0.02,0.59-0.11,1.09s-0.19,1.07-0.27,1.72
				c-0.08,0.65-0.15,1.32-0.17,2.04c-0.02,0.71,0.06,1.41,0.25,2.04c0.21,0.74,0.55,1.26,1.01,1.58c0.27,0.21,0.57,0.32,0.84,0.36
				c0.27,0.02,0.53,0,0.76-0.04c0.02,0,0.02,0,0.04-0.02c0.69-0.17,1.22-0.5,1.58-1.01c0.36-0.5,0.61-1.01,0.76-1.55
				c0.06-0.23,0.13-0.46,0.15-0.67c0.04-0.25,0.06-0.5,0.06-0.71C60.33,13.07,60.35,12.88,60.35,12.86z"/>
			<path id="XMLID_83_" class="st5" d="M73.63,11.01c-0.34-0.8-0.88-1.39-1.64-1.79c-0.76-0.38-1.58-0.63-2.48-0.71
				s-1.85-0.06-2.82,0.08c-0.08,0.02-0.19,0.02-0.27,0.04c-0.86,0.15-1.66,0.34-2.4,0.61c-0.57,0.21-1.13,0.46-1.72,0.78
				c-0.59,0.32-1.13,0.71-1.62,1.16c-0.08,0.08-0.17,0.17-0.23,0.23c-0.38,0.4-0.69,0.84-0.97,1.32c-0.27,0.5-0.42,1.05-0.46,1.66
				v0.02c0,0.02,0,0.02,0,0.02v0.17c0,0.21,0,0.53,0.04,0.9v0.02c0.02,0.21,0.06,0.44,0.11,0.65l0.02,0.04c0,0,0,0.02,0,0.04
				l0.02,0.04c0.02,0.08,0.06,0.19,0.11,0.32v0.02l0,0c0.4,0.97,0.97,1.72,1.72,2.27c0.44,0.34,0.9,0.61,1.34,0.84
				c0.29,0.15,0.57,0.27,0.86,0.38c0.74,0.27,1.39,0.44,1.95,0.5c0.44,0.04,0.69,0.06,0.84,0.06c0.13,0,0.17-0.02,0.21-0.02
				c0.06-0.02,0.11-0.06,0.19-0.13c0.06-0.04,0.19-0.19,0.08-0.44c-0.06-0.15-0.19-0.23-0.38-0.25c-0.04,0-0.17-0.02-0.44-0.08
				c-0.21-0.04-0.5-0.13-0.86-0.25c-0.32-0.11-0.74-0.27-1.2-0.48c-0.06-0.02-0.13-0.04-0.19-0.08c-0.46-0.23-0.95-0.55-1.43-0.97
				c-0.08-0.06-0.17-0.15-0.23-0.23l-0.02-0.02c-0.06-0.06-0.13-0.15-0.19-0.21c-0.02-0.02-0.04-0.04-0.06-0.06
				c-0.02-0.02-0.04-0.04-0.06-0.06c-0.13-0.15-0.21-0.29-0.25-0.34l0,0c0.8,0.11,2.42,0.06,2.42,0.06c0.36,0,0.71,0,1.09,0
				c0.76-0.02,1.53-0.11,2.33-0.23c0.8-0.13,1.55-0.34,2.29-0.59c0.55-0.19,1.11-0.46,1.7-0.8c0.59-0.34,1.13-0.74,1.6-1.18
				c0.32-0.32,0.59-0.65,0.78-1.01c0.11-0.17,0.19-0.34,0.25-0.53C73.89,12.23,73.89,11.62,73.63,11.01z M68.8,13.99
				c-0.5,0.27-1.07,0.5-1.66,0.69c-0.5,0.15-1.05,0.29-1.66,0.38c-0.59,0.11-1.2,0.17-1.79,0.23c-0.02,0-0.04,0-0.06,0
				c-0.57,0.04-1.13,0.06-1.66,0.04c-0.48-0.02-0.92-0.04-1.3-0.06c-0.02-0.23-0.02-0.46,0.02-0.67c0.04-0.29,0.15-0.61,0.32-0.88
				c0.29-0.53,0.71-0.99,1.22-1.34c0.13-0.08,0.25-0.17,0.38-0.25c0.4-0.25,0.84-0.46,1.28-0.63c0.61-0.21,1.3-0.38,2.06-0.5
				c0.15-0.02,0.29-0.04,0.44-0.06c0.61-0.06,1.2-0.08,1.79-0.06c0.71,0.04,1.32,0.13,1.85,0.29c0.46,0.15,0.76,0.36,0.88,0.63
				c0.06,0.17,0.02,0.36-0.11,0.59l0,0c-0.15,0.27-0.4,0.55-0.74,0.8c-0.06,0.04-0.15,0.11-0.21,0.17
				C69.56,13.55,69.2,13.76,68.8,13.99z"/>
		</g>
		
			<linearGradient id="XMLID_00000113329813353790296350000000397356292340127900_" gradientUnits="userSpaceOnUse" x1="61.3577" y1="707.7172" x2="61.1566" y2="707.7288" gradientTransform="matrix(1 0 0 1 0 -690.4884)">
			<stop  offset="0" style="stop-color:#FFFFFF"/>
			<stop  offset="1" style="stop-color:#010101"/>
		</linearGradient>
		
			<path id="XMLID_81_" style="opacity:0.53;fill:url(#XMLID_00000113329813353790296350000000397356292340127900_);enable-background:new    ;" d="
			M61.19,17.06c0.02,0.04,0.13,0.19,0.25,0.34h-0.02C61.34,17.27,61.26,17.17,61.19,17.06z"/>
		<g id="XMLID_1_">
			<path id="XMLID_13_" class="st5" d="M73.42,31.1c-0.19,0-0.38-0.04-0.53-0.15c-0.17-0.08-0.29-0.19-0.4-0.29v1.18
				c0,0.04-0.02,0.08-0.04,0.11s-0.06,0.04-0.11,0.04c-0.04,0-0.08-0.02-0.11-0.04c-0.02-0.02-0.04-0.06-0.04-0.11v-1.91
				c0-0.17,0.04-0.32,0.11-0.46c0.06-0.15,0.15-0.27,0.27-0.38c0.13-0.11,0.25-0.19,0.4-0.23c0.15-0.06,0.32-0.08,0.48-0.08
				c0.17,0,0.34,0.02,0.48,0.08c0.15,0.06,0.29,0.15,0.4,0.25c0.11,0.11,0.19,0.23,0.27,0.38c0.06,0.15,0.11,0.29,0.11,0.44
				c0,0.17-0.04,0.32-0.11,0.46c-0.06,0.15-0.17,0.27-0.27,0.38c-0.11,0.11-0.25,0.19-0.4,0.25C73.74,31.06,73.59,31.1,73.42,31.1z
				 M72.48,29.92c0,0.13,0.02,0.23,0.08,0.36c0.04,0.11,0.13,0.19,0.21,0.27c0.08,0.08,0.19,0.15,0.29,0.19
				c0.11,0.04,0.23,0.06,0.36,0.06c0.13,0,0.25-0.02,0.36-0.06c0.11-0.04,0.21-0.11,0.29-0.19c0.08-0.08,0.15-0.17,0.19-0.27
				c0.04-0.11,0.06-0.21,0.06-0.34c0-0.13-0.02-0.23-0.06-0.34c-0.04-0.11-0.11-0.19-0.19-0.27c-0.08-0.08-0.19-0.15-0.29-0.19
				c-0.11-0.04-0.23-0.06-0.36-0.06c-0.13,0-0.25,0.02-0.36,0.06c-0.11,0.04-0.21,0.11-0.29,0.19s-0.15,0.17-0.19,0.27
				C72.52,29.69,72.48,29.8,72.48,29.92z"/>
			<path id="XMLID_11_" class="st5" d="M74.81,29.9c0-0.17,0.02-0.32,0.08-0.44c0.06-0.13,0.15-0.27,0.25-0.38
				c0.11-0.11,0.23-0.19,0.4-0.25c0.15-0.06,0.32-0.08,0.48-0.11c0.06,0,0.11,0.02,0.13,0.04c0.02,0.02,0.04,0.06,0.04,0.11
				s-0.02,0.08-0.04,0.11c-0.04,0.02-0.08,0.04-0.13,0.04c-0.13,0-0.23,0.02-0.36,0.08c-0.11,0.04-0.21,0.11-0.29,0.19
				c-0.08,0.08-0.15,0.17-0.19,0.27c-0.04,0.11-0.06,0.21-0.06,0.34v1.03c0,0.04-0.02,0.08-0.04,0.11s-0.06,0.04-0.11,0.04
				c-0.04,0-0.08-0.02-0.11-0.04c-0.02-0.02-0.04-0.06-0.04-0.11V29.9H74.81z"/>
			<path id="XMLID_8_" class="st5" d="M76.32,28.22c0-0.06,0.02-0.11,0.06-0.15c0.04-0.04,0.08-0.06,0.15-0.06s0.11,0.02,0.15,0.06
				c0.04,0.04,0.06,0.08,0.06,0.15s-0.02,0.11-0.06,0.15c-0.04,0.04-0.08,0.06-0.15,0.06s-0.11-0.02-0.15-0.06
				C76.34,28.33,76.32,28.28,76.32,28.22z M76.37,28.89c0-0.04,0.02-0.08,0.04-0.11s0.06-0.04,0.11-0.04c0.04,0,0.08,0.02,0.11,0.04
				c0.02,0.02,0.04,0.06,0.04,0.11v2.06c0,0.04-0.02,0.08-0.04,0.11c-0.02,0.02-0.06,0.04-0.11,0.04c-0.04,0-0.08-0.02-0.11-0.04
				c-0.02-0.02-0.04-0.06-0.04-0.11V28.89z"/>
			<path id="XMLID_4_" class="st5" d="M76.95,29.9c0-0.17,0.04-0.32,0.11-0.46c0.06-0.15,0.15-0.27,0.27-0.38
				c0.11-0.11,0.25-0.19,0.4-0.25c0.15-0.06,0.32-0.08,0.48-0.08c0.17,0,0.34,0.02,0.48,0.08c0.15,0.06,0.29,0.15,0.4,0.25
				c0.11,0.11,0.19,0.23,0.27,0.38c0.06,0.15,0.11,0.29,0.11,0.46v1.03c0,0.04-0.02,0.08-0.04,0.11s-0.06,0.04-0.11,0.04
				c-0.04,0-0.08-0.02-0.11-0.04c-0.02-0.02-0.04-0.06-0.04-0.11V29.9c0-0.13-0.02-0.23-0.06-0.34c-0.04-0.11-0.13-0.19-0.19-0.27
				c-0.08-0.08-0.19-0.15-0.29-0.19c-0.11-0.04-0.23-0.06-0.36-0.06c-0.13,0-0.25,0.02-0.36,0.06s-0.21,0.11-0.29,0.19
				s-0.15,0.17-0.19,0.27c-0.04,0.11-0.06,0.21-0.06,0.34v1.03c0,0.04-0.02,0.08-0.04,0.11s-0.06,0.04-0.11,0.04
				c-0.04,0-0.08-0.02-0.11-0.04c-0.02-0.02-0.04-0.06-0.04-0.11L76.95,29.9L76.95,29.9z"/>
			<path id="XMLID_2_" class="st5" d="M79.71,28.14c0-0.04,0.02-0.08,0.04-0.11c0.02-0.02,0.06-0.04,0.11-0.04
				c0.04,0,0.08,0.02,0.11,0.04C79.98,28.05,80,28.1,80,28.14v0.59h1.13c0.06,0,0.11,0.02,0.13,0.04c0.02,0.02,0.04,0.06,0.04,0.11
				c0,0.04-0.02,0.08-0.04,0.11c-0.04,0.02-0.08,0.04-0.13,0.04H80v0.9c0,0.13,0.02,0.23,0.06,0.34c0.04,0.11,0.11,0.19,0.19,0.27
				c0.08,0.08,0.19,0.15,0.29,0.19c0.11,0.04,0.23,0.06,0.36,0.06c0.13,0,0.25-0.02,0.36-0.06s0.21-0.11,0.29-0.19
				c0.02-0.02,0.06-0.04,0.11-0.04c0.04,0,0.08,0,0.13,0.02c0.02,0.02,0.04,0.06,0.04,0.11s0,0.08-0.02,0.11
				c-0.11,0.11-0.25,0.21-0.4,0.27c-0.15,0.06-0.32,0.08-0.5,0.08c-0.17,0-0.34-0.02-0.48-0.08c-0.15-0.06-0.29-0.15-0.4-0.25
				c-0.11-0.11-0.19-0.23-0.27-0.38c-0.06-0.15-0.11-0.29-0.11-0.46L79.71,28.14L79.71,28.14z"/>
		</g>
	</g>
	<path id="XMLID_131_" class="st7" d="M59.41,9.16c-0.21-0.44-0.42-0.88-0.61-1.34c-0.13-0.32-0.29-0.55-0.67-0.65
		c-0.25-0.06-0.46-0.23-0.48-0.5C57.6,6.35,57.75,6.11,58,5.95c0.21-0.15,0.42-0.17,0.55,0.08c0.27,0.53,0.55,1.03,0.8,1.55
		c0.08,0.17,0.15,0.34,0.25,0.59c0.13-0.46,0.23-0.86,0.34-1.26c0.17-0.55,0.36-1.07,0.9-1.41c0.27-0.19,0.65-0.11,0.88,0.25
		c0.08,0.13-0.06,0.38-0.15,0.57c-0.02,0.04-0.21,0.04-0.29,0c-0.63-0.27-0.69-0.27-0.9,0.34c-0.19,0.53-0.29,1.07-0.46,1.62
		c-0.11,0.32-0.25,0.61-0.38,0.9C59.51,9.18,59.47,9.16,59.41,9.16z"/>
	<path id="XMLID_130_" class="st7" d="M70.94,22.46c-0.04,0.23-0.08,0.4-0.11,0.57c-0.04,0.29-0.04,0.59,0.19,0.84
		c0.23,0.23,0.44,0.19,0.61-0.08c0.06-0.08,0.13-0.19,0.19-0.27c0.04,0.02,0.08,0.04,0.13,0.06c-0.15,0.29-0.25,0.63-0.42,0.9
		c-0.21,0.34-0.59,0.32-0.86,0.04c-0.27-0.29-0.27-0.63-0.23-0.99C70.44,23.16,70.63,22.76,70.94,22.46z"/>
	<path id="XMLID_129_" class="st7" d="M41.08,21.08c-0.06,0.29-0.13,0.57-0.17,0.84c-0.08,0.44-0.06,0.86,0.29,1.22
		c0.36,0.36,0.69,0.32,0.97-0.13c0.08-0.15,0.19-0.27,0.29-0.4c0.04,0.02,0.08,0.04,0.13,0.08c-0.15,0.4-0.27,0.8-0.46,1.18
		c-0.17,0.34-0.44,0.59-0.88,0.59c-0.42-0.02-0.63-0.32-0.82-0.61C40.07,23.24,40.33,21.64,41.08,21.08z"/>
	<path id="XMLID_123_" class="st7" d="M47.98,24.82c0.15-0.04,0.29-0.06,0.44-0.11c1.13-0.23,2.21-0.61,3.24-1.09
		c0.17-0.08,0.34-0.15,0.5-0.19c0.34-0.08,0.65-0.06,0.92,0.17c0.17,0.15,0.29,0.13,0.46-0.04c0.38-0.34,0.82-0.57,1.37-0.55
		c0.17,0,0.34,0.06,0.46,0.17c0.08,0.06,0.15,0.21,0.13,0.32c-0.11,0.65-0.59,1.03-1.28,1.01c-0.17,0-0.36-0.02-0.53-0.06
		c-0.23-0.08-0.4-0.04-0.57,0.11c-0.06,0.04-0.15,0.08-0.25,0.08c0.04-0.11,0.08-0.21,0.13-0.32c-0.19-0.23-0.44-0.36-0.76-0.27
		c-0.53,0.15-1.07,0.29-1.6,0.48C49.78,24.84,48.9,24.96,47.98,24.82z M53.71,23.87c0.5,0.13,0.97,0.19,1.43-0.06
		C54.66,23.51,54.18,23.54,53.71,23.87z"/>
	<g id="XMLID_121_">
		<path id="XMLID_122_" class="st7" d="M47.87,4.54c-1.11,1.7-2.4,2.27-3.26,2.48c-0.17,0.04-0.69,0.13-0.86,0.15
			c-2.25,0.4-3.07,1.47-3.07,1.47c2.69-0.69,4.71,0.21,5.84,1.01l1.11,0.97C46.65,7.38,47.45,5.32,47.87,4.54z"/>
	</g>
	<path id="XMLID_120_" class="st7" d="M82.19,19.08c0,0,1.11,4.08-2.46,5.67c-3.57,1.6-6.7-1.07-6.7-1.07S79.12,24.94,82.19,19.08z"
		/>
	<g id="XMLID_16_">
		<path id="XMLID_78_" class="st7" d="M42.95,28.49c0.08,0,0.13-0.02,0.19-0.06c0.04-0.04,0.08-0.11,0.08-0.17s-0.02-0.13-0.08-0.17
			c-0.04-0.04-0.11-0.06-0.19-0.06h-2.19c-0.08,0-0.13,0.02-0.19,0.06c-0.04,0.04-0.08,0.11-0.08,0.17l0,3.28
			c0,0.06,0.02,0.13,0.08,0.17c0.04,0.04,0.11,0.06,0.19,0.06h2.16c0.08,0,0.13-0.02,0.19-0.06c0.06-0.04,0.08-0.11,0.08-0.17
			s-0.02-0.13-0.08-0.17c-0.04-0.04-0.11-0.06-0.19-0.06h-1.89v-1.16h1.34c0.08,0,0.13-0.02,0.19-0.06
			c0.04-0.04,0.08-0.11,0.08-0.17s-0.02-0.13-0.08-0.17c-0.04-0.04-0.11-0.06-0.19-0.06h-1.34v-1.13L42.95,28.49L42.95,28.49z"/>
		<path id="XMLID_77_" class="st7" d="M45.98,31.29h-1.91v-3.05c0-0.06-0.02-0.13-0.08-0.17c-0.11-0.08-0.27-0.08-0.38,0
			c-0.04,0.04-0.08,0.11-0.08,0.17v3.3c0,0.06,0.02,0.13,0.08,0.17c0.04,0.04,0.11,0.06,0.19,0.06h2.16c0.06,0,0.15-0.02,0.19-0.06
			c0.04-0.04,0.08-0.11,0.08-0.17s-0.02-0.13-0.08-0.17C46.13,31.31,46.06,31.29,45.98,31.29z"/>
		<path id="XMLID_76_" class="st7" d="M53.84,29.82c-0.13-0.11-0.27-0.19-0.46-0.25c-0.17-0.06-0.36-0.11-0.55-0.13
			c-0.08-0.02-0.19-0.02-0.29-0.06s-0.19-0.06-0.27-0.11c-0.08-0.04-0.15-0.08-0.21-0.15c-0.04-0.04-0.06-0.11-0.06-0.17
			c0-0.06,0.02-0.13,0.06-0.17c0.04-0.06,0.11-0.11,0.17-0.15c0.08-0.04,0.17-0.08,0.27-0.11c0.21-0.04,0.46-0.06,0.67,0
			c0.11,0.02,0.19,0.06,0.27,0.11c0.08,0.04,0.15,0.08,0.17,0.15c0.04,0.04,0.06,0.11,0.06,0.17c0,0.08,0.04,0.15,0.08,0.19
			c0.11,0.11,0.27,0.11,0.38,0c0.04-0.04,0.08-0.11,0.08-0.17c0-0.13-0.04-0.27-0.11-0.38c-0.06-0.13-0.17-0.21-0.29-0.29
			c-0.13-0.08-0.27-0.15-0.44-0.21c-0.34-0.11-0.74-0.11-1.05,0c-0.17,0.04-0.32,0.13-0.44,0.21c-0.13,0.08-0.23,0.19-0.29,0.29
			c-0.06,0.13-0.11,0.25-0.11,0.38c0,0.15,0.04,0.27,0.13,0.38c0.08,0.11,0.17,0.21,0.29,0.29c0.13,0.08,0.27,0.15,0.44,0.19
			c0.17,0.04,0.34,0.08,0.5,0.08c0.13,0.02,0.23,0.04,0.36,0.08c0.11,0.04,0.21,0.08,0.29,0.15s0.15,0.13,0.21,0.21
			c0.04,0.08,0.08,0.17,0.08,0.23c0,0.08-0.02,0.19-0.06,0.25c-0.04,0.08-0.13,0.15-0.21,0.21c-0.08,0.06-0.19,0.11-0.32,0.15
			c-0.23,0.08-0.53,0.08-0.76,0c-0.13-0.04-0.21-0.08-0.29-0.15c-0.08-0.06-0.15-0.13-0.19-0.21c-0.04-0.08-0.06-0.17-0.06-0.27
			c0-0.06-0.02-0.13-0.08-0.17c-0.11-0.08-0.25-0.08-0.36,0c-0.04,0.04-0.08,0.11-0.08,0.17c0,0.17,0.04,0.32,0.13,0.46
			c0.08,0.15,0.19,0.27,0.32,0.38c0.13,0.11,0.29,0.19,0.46,0.25c0.17,0.06,0.36,0.08,0.57,0.08c0.21,0,0.4-0.02,0.57-0.08
			c0.17-0.06,0.34-0.15,0.46-0.25c0.13-0.11,0.25-0.23,0.32-0.38c0.08-0.15,0.13-0.29,0.13-0.46c0-0.17-0.04-0.32-0.11-0.44
			C54.07,30.03,53.96,29.92,53.84,29.82z"/>
		<path id="XMLID_40_" class="st7" d="M56.57,28.18L56.57,28.18c-0.02-0.04-0.04-0.08-0.08-0.13c-0.08-0.08-0.23-0.08-0.32,0
			c-0.04,0.04-0.06,0.08-0.08,0.11l-1.47,3.28c-0.02,0.06-0.02,0.13,0,0.19c0.02,0.06,0.08,0.11,0.15,0.13
			c0.06,0.02,0.15,0.02,0.21,0c0.06-0.02,0.11-0.06,0.15-0.13l0.23-0.48h2l0.23,0.48c0.02,0.06,0.06,0.11,0.15,0.13
			c0.04,0.02,0.06,0.02,0.11,0.02s0.06,0,0.11-0.02c0.06-0.02,0.13-0.06,0.15-0.13c0.02-0.06,0.02-0.13,0-0.19L56.57,28.18z
			 M57.1,30.66h-1.55l0.78-1.74L57.1,30.66z"/>
		<path id="XMLID_26_" class="st7" d="M61.28,28.22L61.28,28.22c0-0.06-0.04-0.13-0.11-0.17s-0.13-0.06-0.19-0.06
			s-0.13,0.04-0.17,0.08l-1.49,1.74l-1.47-1.74c-0.04-0.04-0.11-0.08-0.17-0.08s-0.13,0.02-0.19,0.06s-0.08,0.11-0.11,0.17
			c-0.02,0.06,0.02,0.13,0.06,0.17l1.6,1.91v1.22c0,0.06,0.02,0.13,0.08,0.17c0.04,0.04,0.13,0.06,0.19,0.06
			c0.06,0,0.15-0.02,0.19-0.06c0.04-0.04,0.08-0.11,0.08-0.17V30.3l1.64-1.91C61.28,28.35,61.28,28.28,61.28,28.22z"/>
		<path id="XMLID_23_" class="st7" d="M62.6,28.18L62.6,28.18c-0.02-0.04-0.04-0.08-0.08-0.13c-0.08-0.08-0.23-0.08-0.32,0
			c-0.04,0.04-0.06,0.08-0.08,0.11l-1.47,3.28c-0.02,0.06-0.02,0.13,0,0.19s0.08,0.11,0.15,0.13c0.04,0.02,0.06,0.02,0.11,0.02
			c0.04,0,0.06,0,0.11-0.02c0.06-0.02,0.11-0.06,0.15-0.13l0.23-0.48h2l0.23,0.48c0.02,0.06,0.08,0.11,0.15,0.13
			c0.06,0.02,0.13,0.02,0.21,0c0.06-0.02,0.13-0.06,0.15-0.13c0.02-0.06,0.02-0.13,0-0.19L62.6,28.18z M63.13,30.66h-1.55l0.78-1.74
			L63.13,30.66z"/>
		<path id="XMLID_20_" class="st7" d="M66.34,28.18L66.34,28.18c-0.02-0.04-0.04-0.08-0.08-0.13c-0.08-0.08-0.23-0.08-0.32,0
			c-0.04,0.04-0.06,0.08-0.08,0.11l-1.47,3.28c-0.02,0.06-0.02,0.13,0,0.19c0.02,0.06,0.08,0.11,0.15,0.13
			c0.06,0.02,0.15,0.02,0.21,0c0.06-0.02,0.11-0.06,0.15-0.13l0.23-0.48h2l0.23,0.48c0.02,0.06,0.08,0.11,0.15,0.13
			c0.04,0.02,0.06,0.02,0.11,0.02s0.06,0,0.11-0.02c0.06-0.02,0.13-0.06,0.15-0.13c0.02-0.06,0.02-0.13,0-0.19L66.34,28.18z
			 M66.87,30.66h-1.55l0.78-1.74L66.87,30.66z"/>
		<path id="XMLID_17_" class="st7" d="M71.41,29.17c-0.11-0.23-0.25-0.44-0.44-0.61c-0.19-0.17-0.4-0.32-0.65-0.4
			s-0.5-0.15-0.8-0.15h-1.05c-0.08,0-0.13,0.02-0.19,0.06c-0.04,0.04-0.08,0.11-0.08,0.17v3.3c0,0.06,0.02,0.13,0.08,0.17
			c0.04,0.04,0.13,0.06,0.19,0.06h1.05c0.27,0,0.55-0.04,0.8-0.15s0.46-0.23,0.65-0.4c0.19-0.17,0.34-0.38,0.44-0.61
			c0.11-0.23,0.17-0.48,0.17-0.74C71.55,29.65,71.51,29.4,71.41,29.17z M69.51,31.29h-0.8v-2.79h0.8c0.21,0,0.4,0.04,0.59,0.11
			c0.19,0.06,0.34,0.17,0.48,0.29c0.13,0.13,0.25,0.27,0.32,0.44c0.06,0.17,0.13,0.36,0.13,0.55c0,0.19-0.04,0.38-0.13,0.55
			c-0.08,0.17-0.19,0.32-0.32,0.44c-0.13,0.13-0.29,0.23-0.48,0.29C69.91,31.25,69.72,31.29,69.51,31.29z"/>
	</g>
</g>
</svg>
